<svg width="24" height="24" viewBox="0 0 24 24" fill="none" xmlns="http://www.w3.org/2000/svg">
<g id="Frame">
<path id="Vector" fill-rule="evenodd" clip-rule="evenodd" d="M6.27601 8.652C6.44793 8.48661 6.67847 8.39623 6.91698 8.40073C7.1555 8.40523 7.38247 8.50424 7.54801 8.676L12 13.4016L16.452 8.676C16.5329 8.58679 16.6309 8.51473 16.7402 8.46409C16.8495 8.41345 16.9679 8.38526 17.0882 8.38119C17.2086 8.37712 17.3286 8.39726 17.441 8.44041C17.5535 8.48356 17.6561 8.54884 17.7429 8.63239C17.8297 8.71594 17.8988 8.81605 17.9461 8.9268C17.9935 9.03754 18.0181 9.15667 18.0186 9.27712C18.0191 9.39756 17.9954 9.51688 17.9489 9.628C17.9024 9.73912 17.8341 9.83977 17.748 9.924L12.648 15.324C12.5641 15.4111 12.4634 15.4804 12.3521 15.5277C12.2407 15.575 12.121 15.5994 12 15.5994C11.879 15.5994 11.7593 15.575 11.648 15.5277C11.5366 15.4804 11.436 15.4111 11.352 15.324L6.25201 9.924C6.08662 9.75209 5.99624 9.52155 6.00074 9.28304C6.00524 9.04452 6.10425 8.81755 6.27601 8.652Z" fill="black"/>
</g>
</svg>
