<svg width="16" height="17" viewBox="0 0 16 17" fill="none" xmlns="http://www.w3.org/2000/svg">
<g id="Frame">
<g clip-path="url(#clip0_1_1626)">
<path id="Vector" d="M5.75 2H10.25C10.3875 2 10.5 2.1125 10.5 2.25V3.5H5.5V2.25C5.5 2.1125 5.6125 2 5.75 2ZM4 2.25V3.5H2C0.896875 3.5 0 4.39687 0 5.5V8.5H6H10H16V5.5C16 4.39687 15.1031 3.5 14 3.5H12V2.25C12 1.28438 11.2156 0.5 10.25 0.5H5.75C4.78438 0.5 4 1.28438 4 2.25ZM16 9.5H10V10.5C10 11.0531 9.55313 11.5 9 11.5H7C6.44688 11.5 6 11.0531 6 10.5V9.5H0V13.5C0 14.6031 0.896875 15.5 2 15.5H14C15.1031 15.5 16 14.6031 16 13.5V9.5Z" fill="#4B5563"/>
</g>
</g>
<defs>
<clipPath id="clip0_1_1626">
<path d="M0 0.5H16V16.5H0V0.5Z" fill="white"/>
</clipPath>
</defs>
</svg>
