<svg width="25" height="20" viewBox="0 0 25 20" fill="none" xmlns="http://www.w3.org/2000/svg">
<g id="Frame">
<g clip-path="url(#clip0_70_1894)">
<path id="Vector" d="M14.9999 1.25H19.9999C20.6913 1.25 21.2499 1.80859 21.2499 2.5C21.2499 3.19141 20.6913 3.75 19.9999 3.75H15.5624C15.3593 4.75781 14.6679 5.58984 13.7499 5.98828V17.5H19.9999C20.6913 17.5 21.2499 18.0586 21.2499 18.75C21.2499 19.4414 20.6913 20 19.9999 20H12.4999H4.99991C4.3085 20 3.74991 19.4414 3.74991 18.75C3.74991 18.0586 4.3085 17.5 4.99991 17.5H11.2499V5.98828C10.3319 5.58594 9.64053 4.75391 9.43741 3.75H4.99991C4.3085 3.75 3.74991 3.19141 3.74991 2.5C3.74991 1.80859 4.3085 1.25 4.99991 1.25H9.99991C10.5702 0.492188 11.4765 0 12.4999 0C13.5233 0 14.4296 0.492188 14.9999 1.25ZM17.1718 12.5H22.828L19.9999 7.64844L17.1718 12.5ZM19.9999 16.25C17.5429 16.25 15.4999 14.9219 15.078 13.168C14.9765 12.7383 15.1171 12.2969 15.3398 11.9141L19.0585 5.53906C19.2538 5.20312 19.6132 5 19.9999 5C20.3866 5 20.746 5.20703 20.9413 5.53906L24.6601 11.9141C24.8827 12.2969 25.0233 12.7383 24.9218 13.168C24.4999 14.9219 22.4569 16.25 19.9999 16.25ZM4.95303 7.64844L2.12491 12.5H7.78506L4.95303 7.64844ZM0.0350633 13.168C-0.0664992 12.7383 0.0741258 12.2969 0.296782 11.9141L4.01553 5.53906C4.21084 5.20312 4.57022 5 4.95694 5C5.34366 5 5.70303 5.20703 5.89834 5.53906L9.61709 11.9141C9.83975 12.2969 9.98038 12.7383 9.87881 13.168C9.45303 14.9219 7.41006 16.25 4.95303 16.25C2.496 16.25 0.456938 14.9219 0.0350633 13.168Z" fill="#D97706"/>
</g>
</g>
<defs>
<clipPath id="clip0_70_1894">
<path d="M0 0H25V20H0V0Z" fill="white"/>
</clipPath>
</defs>
</svg>
