<svg width="16" height="16" viewBox="0 0 16 16" fill="none" xmlns="http://www.w3.org/2000/svg">
<g id="Frame">
<g clip-path="url(#clip0_464_33)">
<path id="Vector" d="M7.60637 0.0811523L0.606368 3.08115C0.168868 3.26865 -0.074882 3.7374 0.021993 4.1999C0.118868 4.6624 0.525118 4.9999 1.00012 4.9999V5.2499C1.00012 5.66553 1.33449 5.9999 1.75012 5.9999H14.2501C14.6657 5.9999 15.0001 5.66553 15.0001 5.2499V4.9999C15.4751 4.9999 15.8845 4.66553 15.9782 4.1999C16.072 3.73428 15.8282 3.26553 15.3939 3.08115L8.39387 0.0811523C8.14387 -0.0250977 7.85637 -0.0250977 7.60637 0.0811523ZM4.00012 6.9999H2.00012V13.1343C1.98137 13.1437 1.96262 13.1562 1.94387 13.1687L0.443868 14.1687C0.078243 14.4124 -0.087382 14.8687 0.040743 15.2905C0.168868 15.7124 0.559493 15.9999 1.00012 15.9999H15.0001C15.4407 15.9999 15.8282 15.7124 15.9564 15.2905C16.0845 14.8687 15.922 14.4124 15.5532 14.1687L14.0532 13.1687C14.0345 13.1562 14.0157 13.1468 13.997 13.1343V6.9999H12.0001V12.9999H10.7501V6.9999H8.75012V12.9999H7.25012V6.9999H5.25012V12.9999H4.00012V6.9999ZM8.00012 1.9999C8.26534 1.9999 8.51969 2.10526 8.70722 2.2928C8.89476 2.48033 9.00012 2.73469 9.00012 2.9999C9.00012 3.26512 8.89476 3.51947 8.70722 3.70701C8.51969 3.89455 8.26534 3.9999 8.00012 3.9999C7.7349 3.9999 7.48055 3.89455 7.29301 3.70701C7.10547 3.51947 7.00012 3.26512 7.00012 2.9999C7.00012 2.73469 7.10547 2.48033 7.29301 2.2928C7.48055 2.10526 7.7349 1.9999 8.00012 1.9999Z" fill="#2563EB"/>
</g>
</g>
<defs>
<clipPath id="clip0_464_33">
<path d="M0 0H16V16H0V0Z" fill="white"/>
</clipPath>
</defs>
</svg>
