<svg width="27" height="24" viewBox="0 0 27 24" fill="none" xmlns="http://www.w3.org/2000/svg">
<g id="Frame">
<g clip-path="url(#clip0_370_3348)">
<path id="Vector" d="M13.6312 2.27832L17.3063 3.67051L13.5 5.13301L9.69375 3.67051L13.3688 2.27832C13.4531 2.24551 13.5469 2.24551 13.6359 2.27832H13.6312ZM6.375 4.33613V9.59551C6.31406 9.61426 6.25313 9.63301 6.19219 9.65644L1.69219 11.3627C0.675 11.7471 0 12.7268 0 13.8143V19.4018C0 20.4424 0.614063 21.3846 1.57031 21.8064L6.07031 23.7846C6.74531 24.0799 7.50938 24.0799 8.18438 23.7846L13.5 21.4455L18.8203 23.7846C19.4953 24.0799 20.2594 24.0799 20.9344 23.7846L25.4344 21.8064C26.3859 21.3893 27.0047 20.4424 27.0047 19.4018V13.8143C27.0047 12.7221 26.3297 11.7471 25.3125 11.358L20.8125 9.65176C20.7516 9.62832 20.6906 9.60957 20.6297 9.59082V4.33613C20.6297 3.24395 19.9547 2.26895 18.9375 1.87988L14.4375 0.173633C13.8375 -0.0513672 13.1766 -0.0513672 12.5766 0.173633L8.07656 1.87988C7.05 2.26895 6.375 3.24863 6.375 4.33613ZM18.375 9.87207L14.5125 11.3346V7.15332L18.375 5.67207V9.87207ZM7.25625 11.7611L10.9312 13.1533L7.125 14.6111L3.31875 13.1533L6.99375 11.7611C7.07812 11.7283 7.17187 11.7283 7.26094 11.7611H7.25625ZM8.1375 21.3424V16.6314L12 15.1502V19.6455L8.1375 21.3424ZM19.7438 11.7611C19.8281 11.7283 19.9219 11.7283 20.0109 11.7611L23.6859 13.1533L19.875 14.6111L16.0687 13.1533L19.7438 11.7611ZM24.525 19.7439L20.8875 21.3424V16.6314L24.75 15.1502V19.4018C24.75 19.5518 24.6609 19.683 24.525 19.7439Z" fill="#4F46E5"/>
</g>
</g>
<defs>
<clipPath id="clip0_370_3348">
<path d="M0 0H27V24H0V0Z" fill="white"/>
</clipPath>
</defs>
</svg>
