<svg width="18" height="20" viewBox="0 0 18 20" fill="none" xmlns="http://www.w3.org/2000/svg">
<g id="Frame">
<g clip-path="url(#clip0_62_2669)">
<path id="Vector" d="M0 3.12501V8.96486C0 9.62892 0.261719 10.2656 0.730469 10.7344L7.60547 17.6094C8.58203 18.586 10.1641 18.586 11.1406 17.6094L16.3555 12.3945C17.332 11.418 17.332 9.83595 16.3555 8.85939L9.48047 1.98439C9.01172 1.51564 8.375 1.25392 7.71094 1.25392H1.875C0.839844 1.25001 0 2.08986 0 3.12501ZM4.375 4.37501C4.70652 4.37501 5.02446 4.50671 5.25888 4.74113C5.4933 4.97555 5.625 5.29349 5.625 5.62501C5.625 5.95653 5.4933 6.27448 5.25888 6.5089C5.02446 6.74332 4.70652 6.87501 4.375 6.87501C4.04348 6.87501 3.72554 6.74332 3.49112 6.5089C3.2567 6.27448 3.125 5.95653 3.125 5.62501C3.125 5.29349 3.2567 4.97555 3.49112 4.74113C3.72554 4.50671 4.04348 4.37501 4.375 4.37501Z" fill="#DB2777"/>
</g>
</g>
<defs>
<clipPath id="clip0_62_2669">
<path d="M0 0H17.5V20H0V0Z" fill="white"/>
</clipPath>
</defs>
</svg>
