<svg width="27" height="24" viewBox="0 0 27 24" fill="none" xmlns="http://www.w3.org/2000/svg">
<g id="Frame">
<g clip-path="url(#clip0_370_3264)">
<path id="Vector" d="M0 1.125C0 0.501562 0.501562 0 1.125 0H3.25781C4.28906 0 5.20312 0.6 5.62969 1.5H24.8953C26.1281 1.5 27.0281 2.67188 26.7047 3.8625L24.7828 11.0016C24.3844 12.4734 23.0484 13.5 21.525 13.5H8.00156L8.25469 14.8359C8.35781 15.3656 8.82187 15.75 9.36094 15.75H22.875C23.4984 15.75 24 16.2516 24 16.875C24 17.4984 23.4984 18 22.875 18H9.36094C7.73906 18 6.34688 16.8469 6.04688 15.2578L3.62813 2.55469C3.59531 2.37656 3.44062 2.25 3.25781 2.25H1.125C0.501562 2.25 0 1.74844 0 1.125ZM6 21.75C6 21.4545 6.0582 21.1619 6.17127 20.889C6.28434 20.616 6.45008 20.3679 6.65901 20.159C6.86794 19.9501 7.11598 19.7843 7.38896 19.6713C7.66194 19.5582 7.95453 19.5 8.25 19.5C8.54547 19.5 8.83806 19.5582 9.11104 19.6713C9.38402 19.7843 9.63206 19.9501 9.84099 20.159C10.0499 20.3679 10.2157 20.616 10.3287 20.889C10.4418 21.1619 10.5 21.4545 10.5 21.75C10.5 22.0455 10.4418 22.3381 10.3287 22.611C10.2157 22.884 10.0499 23.1321 9.84099 23.341C9.63206 23.5499 9.38402 23.7157 9.11104 23.8287C8.83806 23.9418 8.54547 24 8.25 24C7.95453 24 7.66194 23.9418 7.38896 23.8287C7.11598 23.7157 6.86794 23.5499 6.65901 23.341C6.45008 23.1321 6.28434 22.884 6.17127 22.611C6.0582 22.3381 6 22.0455 6 21.75ZM21.75 19.5C22.3467 19.5 22.919 19.7371 23.341 20.159C23.7629 20.581 24 21.1533 24 21.75C24 22.3467 23.7629 22.919 23.341 23.341C22.919 23.7629 22.3467 24 21.75 24C21.1533 24 20.581 23.7629 20.159 23.341C19.7371 22.919 19.5 22.3467 19.5 21.75C19.5 21.1533 19.7371 20.581 20.159 20.159C20.581 19.7371 21.1533 19.5 21.75 19.5Z" fill="#2563EB"/>
</g>
</g>
<defs>
<clipPath id="clip0_370_3264">
<path d="M0 0H27V24H0V0Z" fill="white"/>
</clipPath>
</defs>
</svg>
