<svg width="16" height="16" viewBox="0 0 16 16" fill="none" xmlns="http://www.w3.org/2000/svg">
<g id="circum:logout">
<path id="Vector" d="M12.2562 13.5486C12.6944 13.5422 13.0334 13.3704 13.2566 13.0827C13.4732 12.8034 13.562 12.4398 13.562 12.0733V3.76728C13.5672 3.50782 13.4938 3.25283 13.3511 3.03597C13.208 2.81826 13.0019 2.6493 12.7604 2.55153L12.7469 2.54604L12.7328 2.54217C12.4776 2.47216 12.2121 2.44771 11.9485 2.46993H7.85262C7.83052 2.46993 7.80932 2.46115 7.79369 2.44552C7.77807 2.42989 7.76929 2.4087 7.76929 2.38659C7.76929 2.36449 7.77807 2.3433 7.79369 2.32767C7.80932 2.31204 7.83052 2.30326 7.85262 2.30326C8.35338 2.30326 8.85193 2.29692 9.349 2.29059C10.3371 2.27802 11.3192 2.26552 12.3011 2.30308L12.3011 2.3031L12.3043 2.30318C12.498 2.30808 12.6888 2.35145 12.8656 2.43078C13.0424 2.51011 13.2016 2.6238 13.3341 2.76525C13.4665 2.90669 13.5695 3.07306 13.637 3.25468C13.7046 3.4363 13.7353 3.62954 13.7275 3.82315L13.7273 3.82314L13.7273 3.8333L13.7286 12.295C13.7227 12.4904 13.6777 12.6827 13.5964 12.8606C13.5147 13.0395 13.3978 13.2001 13.2527 13.333C13.1077 13.4658 12.9374 13.5681 12.752 13.6339C12.5666 13.6996 12.3699 13.7275 12.1736 13.7157L12.1654 13.7152L12.1572 13.7153C11.2012 13.7206 10.246 13.7188 9.28969 13.717C8.81102 13.7162 8.33207 13.7153 7.85262 13.7153C7.83052 13.7153 7.80932 13.7065 7.7937 13.6909L7.61732 13.8672L7.79369 13.6909C7.77807 13.6752 7.76929 13.654 7.76929 13.6319C7.76929 13.6098 7.77807 13.5886 7.7937 13.573C7.80932 13.5574 7.83052 13.5486 7.85262 13.5486C8.33888 13.5486 8.82646 13.551 9.31473 13.5533C10.294 13.5581 11.2761 13.5628 12.2562 13.5486ZM12.2562 13.5486L12.2526 13.2986M12.2562 13.5486C12.2562 13.5486 12.2562 13.5486 12.2563 13.5486L12.2526 13.2986M12.2526 13.2986C12.9906 13.2879 13.312 12.7333 13.312 12.0733V3.76459M12.2526 13.2986C11.2748 13.3128 10.2971 13.3081 9.31929 13.3033C8.8304 13.301 8.34151 13.2986 7.85262 13.2986C7.76421 13.2986 7.67943 13.3337 7.61692 13.3962L13.312 3.76459M13.312 3.76459C13.3167 3.55485 13.2575 3.34862 13.1423 3.17333C13.027 2.99804 12.8611 2.86198 12.6666 2.78326C12.4365 2.72012 12.197 2.69867 11.9593 2.71993L13.312 3.76459Z" stroke="#1B3664" stroke-width="0.5"/>
<path id="Vector_2" d="M2.2921 7.95407L2.29211 7.95408L2.29409 7.9521L4.73802 5.5075C4.75362 5.49295 4.77422 5.48492 4.79558 5.48511C4.81743 5.4853 4.83833 5.49406 4.85378 5.50952C4.86923 5.52497 4.878 5.54587 4.87819 5.56772C4.87837 5.58909 4.87034 5.60969 4.85578 5.62529L2.98115 7.5006L2.55455 7.92734H3.15795H10.3193C10.3414 7.92734 10.3626 7.93612 10.3782 7.95175C10.3938 7.96738 10.4026 7.98858 10.4026 8.01068C10.4026 8.03278 10.3938 8.05398 10.3782 8.0696C10.3626 8.08523 10.3414 8.09401 10.3193 8.09401H3.15795H2.55455L2.98115 8.52076L4.85579 10.3961C4.87034 10.4117 4.87837 10.4323 4.87819 10.4536C4.878 10.4755 4.86923 10.4964 4.85378 10.5118C4.83833 10.5273 4.81743 10.5361 4.79558 10.5362C4.77421 10.5364 4.75361 10.5284 4.73802 10.5139L2.29406 8.0699L2.29407 8.06989L2.29212 8.06798C2.28174 8.05782 2.27565 8.04406 2.27512 8.02954L2.27453 8.01349C2.27524 8.00483 2.27559 7.99602 2.27555 7.98708C2.27722 7.97459 2.28302 7.96295 2.2921 7.95407Z" stroke="#1B3664" stroke-width="0.5"/>
</g>
</svg>
