<svg width="24" height="24" viewBox="0 0 24 24" fill="none" xmlns="http://www.w3.org/2000/svg">
<g id="clarity:favorite-line" clip-path="url(#clip0_1_350)">
<g id="Vector">
<mask id="path-1-inside-1_1_350" fill="white">
<path d="M18.1267 22.6667C17.8319 22.6672 17.5438 22.5789 17.3 22.4133L12.3267 19.08C12.3022 19.0631 12.2731 19.054 12.2433 19.054C12.2136 19.054 12.1845 19.0631 12.16 19.08L7.18666 22.4133C6.93692 22.5801 6.64237 22.6669 6.34211 22.6623C6.04185 22.6577 5.7501 22.5619 5.5056 22.3875C5.26109 22.2132 5.0754 21.9686 4.97319 21.6863C4.87098 21.4039 4.85707 21.0971 4.93333 20.8067L6.56666 15.0467C6.57439 15.0177 6.57345 14.9871 6.56397 14.9587C6.55449 14.9302 6.53689 14.9052 6.51333 14.8867L1.80666 11.1867C1.55889 11.0021 1.37509 10.7446 1.28105 10.4503C1.18701 10.156 1.18744 9.83959 1.28227 9.54554C1.3771 9.25148 1.56159 8.99448 1.80986 8.81056C2.05813 8.62665 2.35773 8.52504 2.66666 8.52L8.66666 8.29333C8.69616 8.29129 8.72445 8.28077 8.7481 8.26303C8.77176 8.24529 8.78978 8.22108 8.8 8.19333L10.8667 2.57333C10.9708 2.28842 11.16 2.04241 11.4087 1.86859C11.6573 1.69478 11.9533 1.60156 12.2567 1.60156C12.56 1.60156 12.856 1.69478 13.1047 1.86859C13.3533 2.04241 13.5425 2.28842 13.6467 2.57333L15.7133 8.19333C15.7235 8.22108 15.7416 8.24529 15.7652 8.26303C15.7889 8.28077 15.8172 8.29129 15.8467 8.29333L21.8467 8.52C22.1556 8.52504 22.4552 8.62665 22.7035 8.81056C22.9517 8.99448 23.1362 9.25148 23.2311 9.54554C23.3259 9.83959 23.3263 10.156 23.2323 10.4503C23.1382 10.7446 22.9544 11.0021 22.7067 11.1867L18 14.8867C17.9757 14.9046 17.9576 14.9296 17.948 14.9582C17.9385 14.9869 17.938 15.0177 17.9467 15.0467L19.58 20.8067C19.6373 21.0276 19.643 21.2588 19.5966 21.4823C19.5502 21.7057 19.453 21.9155 19.3125 22.0954C19.1719 22.2753 18.9919 22.4203 18.7862 22.5194C18.5806 22.6185 18.3549 22.6689 18.1267 22.6667ZM12.2467 17.72C12.542 17.7286 12.8278 17.8262 13.0667 18L18.04 21.3333C18.0652 21.3525 18.0959 21.363 18.1276 21.3632C18.1592 21.3635 18.1901 21.3535 18.2156 21.3347C18.2411 21.316 18.2599 21.2895 18.2691 21.2592C18.2783 21.2289 18.2774 21.1964 18.2667 21.1667L16.6333 15.4067C16.553 15.1241 16.5589 14.824 16.6504 14.5448C16.7418 14.2656 16.9147 14.0202 17.1467 13.84L21.8533 10.14C21.879 10.122 21.8982 10.0962 21.9082 10.0664C21.9181 10.0366 21.9182 10.0045 21.9085 9.97465C21.8988 9.94481 21.8798 9.91886 21.8543 9.90063C21.8287 9.88239 21.798 9.87282 21.7667 9.87333L15.7667 9.64666C15.4729 9.63521 15.1892 9.53652 14.9517 9.36316C14.7142 9.18981 14.5338 8.94966 14.4333 8.67333L12.3667 3.05333C12.3573 3.02349 12.3387 2.99741 12.3136 2.97889C12.2884 2.96037 12.2579 2.95038 12.2267 2.95038C12.1954 2.95038 12.165 2.96037 12.1398 2.97889C12.1146 2.99741 12.096 3.02349 12.0867 3.05333L10.04 8.66666C9.93957 8.94299 9.75911 9.18314 9.52164 9.3565C9.28417 9.52985 9.00045 9.62854 8.70666 9.64L2.70666 9.86666C2.67529 9.86616 2.64458 9.87572 2.61905 9.89396C2.59352 9.9122 2.57451 9.93814 2.56481 9.96798C2.55511 9.99782 2.55524 10.03 2.56517 10.0597C2.57511 10.0895 2.59432 10.1153 2.62 10.1333L7.33333 13.84C7.56462 14.0208 7.73693 14.2663 7.82834 14.5452C7.91974 14.8242 7.92612 15.1241 7.84666 15.4067L6.22 21.1667C6.21029 21.1955 6.21024 21.2267 6.21987 21.2556C6.22949 21.2845 6.24826 21.3094 6.27333 21.3267C6.29748 21.3473 6.32822 21.3587 6.36 21.3587C6.39178 21.3587 6.42251 21.3473 6.44666 21.3267L11.42 17.9933C11.6627 17.8314 11.9482 17.7455 12.24 17.7467L12.2467 17.72Z"/>
</mask>
<path d="M18.1267 22.6667L18.1411 21.1667L18.1325 21.1667L18.1239 21.1667L18.1267 22.6667ZM17.3 22.4133L18.1427 21.1724L18.1351 21.1673L17.3 22.4133ZM12.3267 19.08L11.4744 20.3144L11.4829 20.3202L11.4915 20.326L12.3267 19.08ZM12.2433 19.054V20.554V19.054ZM12.16 19.08L12.9951 20.326L13.0037 20.3202L13.0123 20.3144L12.16 19.08ZM7.18666 22.4133L8.01962 23.6608L8.02179 23.6593L7.18666 22.4133ZM4.93333 20.8067L3.49023 20.3975L3.48622 20.4116L3.4825 20.4258L4.93333 20.8067ZM6.56666 15.0467L8.00977 15.4559L8.01299 15.4445L8.01603 15.4331L6.56666 15.0467ZM6.51333 14.8867L7.44096 13.7079L7.44036 13.7074L6.51333 14.8867ZM1.80666 11.1867L2.73369 10.0074L2.71839 9.99539L2.70278 9.98376L1.80666 11.1867ZM2.66666 8.52L2.69116 10.0198L2.70723 10.0195L2.72329 10.0189L2.66666 8.52ZM8.66666 8.29333L8.72329 9.79226L8.74665 9.79138L8.76997 9.78977L8.66666 8.29333ZM8.8 8.19333L10.2077 8.71151L10.2078 8.71104L8.8 8.19333ZM10.8667 2.57333L12.2745 3.09104L12.2754 3.08843L10.8667 2.57333ZM12.2567 1.60156V3.10156V1.60156ZM13.6467 2.57333L12.2379 3.08843L12.2388 3.09104L13.6467 2.57333ZM15.7133 8.19333L14.3055 8.71104L14.3057 8.71151L15.7133 8.19333ZM15.8467 8.29333L15.7434 9.78977L15.7667 9.79138L15.79 9.79226L15.8467 8.29333ZM21.8467 8.52L21.79 10.0189L21.8061 10.0195L21.8222 10.0198L21.8467 8.52ZM22.7067 11.1867L21.8105 9.98376L21.7949 9.99539L21.7796 10.0074L22.7067 11.1867ZM18 14.8867L18.8916 16.0929L18.9095 16.0797L18.927 16.0659L18 14.8867ZM17.9467 15.0467L19.3898 14.6375L19.3868 14.627L19.3837 14.6166L17.9467 15.0467ZM19.58 20.8067L21.0319 20.4299L21.0277 20.4136L21.0231 20.3975L19.58 20.8067ZM12.2467 17.72L12.2904 16.2206L11.0841 16.1854L10.7914 17.3562L12.2467 17.72ZM13.0667 18L12.1843 19.213L12.2076 19.23L12.2315 19.246L13.0667 18ZM18.04 21.3333L18.9477 20.1391L18.9122 20.1121L18.8751 20.0873L18.04 21.3333ZM18.2667 21.1667L16.8236 21.5759L16.8381 21.627L16.8561 21.677L18.2667 21.1667ZM16.6333 15.4067L18.0764 14.9975L18.0761 14.9963L16.6333 15.4067ZM17.1467 13.84L18.0668 15.0246L18.0737 15.0192L17.1467 13.84ZM21.8533 10.14L20.9912 8.91253L20.9581 8.93577L20.9263 8.96075L21.8533 10.14ZM21.7667 9.87333L21.71 11.3723L21.7504 11.3738L21.7909 11.3731L21.7667 9.87333ZM15.7667 9.64666L15.7082 11.1455L15.71 11.1456L15.7667 9.64666ZM14.4333 8.67333L15.8431 8.16095L15.8412 8.15562L14.4333 8.67333ZM12.3667 3.05333L10.9348 3.50043L10.946 3.53603L10.9588 3.57104L12.3667 3.05333ZM12.2267 2.95038V1.45038V2.95038ZM12.0867 3.05333L13.4959 3.56715L13.508 3.53406L13.5185 3.50043L12.0867 3.05333ZM10.04 8.66666L8.63075 8.15284L8.63022 8.15429L10.04 8.66666ZM8.70666 9.64L8.76329 11.1389L8.76509 11.1389L8.70666 9.64ZM2.70666 9.86666L2.68246 11.3665L2.72289 11.3671L2.76329 11.3656L2.70666 9.86666ZM2.62 10.1333L3.54724 8.95426L3.51535 8.92918L3.48216 8.90586L2.62 10.1333ZM7.33333 13.84L6.40608 15.0191L6.40959 15.0218L7.33333 13.84ZM7.84666 15.4067L9.2902 15.8143L9.29067 15.8127L7.84666 15.4067ZM6.22 21.1667L7.64163 21.6452L7.65346 21.61L7.66354 21.5743L6.22 21.1667ZM6.27333 21.3267L7.24833 20.1868L7.18845 20.1355L7.12353 20.0909L6.27333 21.3267ZM6.44666 21.3267L5.61153 20.0806L5.53849 20.1296L5.47166 20.1868L6.44666 21.3267ZM11.42 17.9933L10.5874 16.7456L10.5849 16.7473L11.42 17.9933ZM12.24 17.7467L12.234 19.2467L13.41 19.2514L13.6952 18.1105L12.24 17.7467ZM18.1239 21.1667C18.1306 21.1667 18.1372 21.1687 18.1427 21.1724L16.4573 23.6542C16.9505 23.9892 17.5332 24.1678 18.1294 24.1667L18.1239 21.1667ZM18.1351 21.1673L13.1618 17.834L11.4915 20.326L16.4649 23.6593L18.1351 21.1673ZM13.1789 17.8456C12.9039 17.6557 12.5776 17.554 12.2433 17.554V20.554C11.9686 20.554 11.7004 20.4704 11.4744 20.3144L13.1789 17.8456ZM12.2433 17.554C11.9091 17.554 11.5828 17.6557 11.3077 17.8456L13.0123 20.3144C12.7862 20.4704 12.518 20.554 12.2433 20.554V17.554ZM11.3249 17.834L6.35153 21.1673L8.02179 23.6593L12.9951 20.326L11.3249 17.834ZM6.35371 21.1659C6.35708 21.1636 6.36106 21.1624 6.36512 21.1625L6.3191 24.1621C6.92367 24.1714 7.51676 23.9966 8.01961 23.6608L6.35371 21.1659ZM6.36512 21.1625C6.36918 21.1626 6.37312 21.1638 6.37643 21.1662L4.63476 23.6089C5.12708 23.9599 5.71453 24.1529 6.3191 24.1621L6.36512 21.1625ZM6.37643 21.1662C6.37973 21.1686 6.38224 21.1719 6.38362 21.1757L3.56276 22.1968C3.76857 22.7654 4.14245 23.2578 4.63476 23.6089L6.37643 21.1662ZM6.38362 21.1757C6.385 21.1795 6.38519 21.1836 6.38416 21.1876L3.4825 20.4258C3.32896 21.0106 3.35695 21.6283 3.56276 22.1968L6.38362 21.1757ZM6.37643 21.2159L8.00977 15.4559L5.12356 14.6375L3.49023 20.3975L6.37643 21.2159ZM8.01603 15.4331C8.0993 15.1208 8.0892 14.7909 7.98699 14.4843L5.14094 15.433C5.0577 15.1833 5.04947 14.9146 5.1173 14.6602L8.01603 15.4331ZM7.98699 14.4843C7.88479 14.1777 7.69496 13.9078 7.44096 13.7079L5.5857 16.0654C5.37881 15.9026 5.22419 15.6827 5.14094 15.433L7.98699 14.4843ZM7.44036 13.7074L2.73369 10.0074L0.879635 12.3659L5.5863 16.0659L7.44036 13.7074ZM2.70278 9.98376C2.70613 9.98626 2.70861 9.98974 2.70988 9.99371L-0.147778 10.9068C0.041577 11.4994 0.411648 12.0179 0.910546 12.3896L2.70278 9.98376ZM2.70988 9.99371C2.71115 9.99769 2.71115 10.002 2.70987 10.0059L-0.145328 9.08514C-0.336276 9.67723 -0.337133 10.3142 -0.147778 10.9068L2.70988 9.99371ZM2.70987 10.0059C2.70858 10.0099 2.70609 10.0134 2.70274 10.0159L0.91698 7.60525C0.417086 7.97557 0.0456208 8.49305 -0.145328 9.08514L2.70987 10.0059ZM2.70274 10.0159C2.69938 10.0184 2.69533 10.0197 2.69116 10.0198L2.64217 7.0202C2.02013 7.03036 1.41687 7.23494 0.91698 7.60525L2.70274 10.0159ZM2.72329 10.0189L8.72329 9.79226L8.61004 6.7944L2.61004 7.02107L2.72329 10.0189ZM8.76997 9.78977C9.08804 9.76781 9.39301 9.65435 9.6481 9.46303L7.8481 7.06303C8.05589 6.90719 8.30428 6.81478 8.56336 6.79689L8.76997 9.78977ZM9.6481 9.46303C9.9032 9.27171 10.0975 9.01071 10.2077 8.71151L7.39234 7.67515C7.48205 7.43145 7.64032 7.21886 7.8481 7.06303L9.6481 9.46303ZM10.2078 8.71104L12.2745 3.09104L9.45883 2.05562L7.39217 7.67562L10.2078 8.71104ZM12.2754 3.08843C12.274 3.09228 12.2715 3.09561 12.2681 3.09795L10.5492 0.639235C10.0486 0.98921 9.66763 1.48456 9.45788 2.05823L12.2754 3.08843ZM12.2681 3.09795C12.2648 3.1003 12.2608 3.10156 12.2567 3.10156V0.101562C11.6459 0.101562 11.0498 0.289257 10.5492 0.639235L12.2681 3.09795ZM12.2567 3.10156C12.2526 3.10156 12.2486 3.1003 12.2452 3.09795L13.9641 0.639235C13.4635 0.289258 12.8675 0.101562 12.2567 0.101562V3.10156ZM12.2452 3.09795C12.2418 3.0956 12.2393 3.09228 12.2379 3.08843L15.0554 2.05823C14.8457 1.48457 14.4647 0.989212 13.9641 0.639235L12.2452 3.09795ZM12.2388 3.09104L14.3055 8.71104L17.1212 7.67562L15.0545 2.05562L12.2388 3.09104ZM14.3057 8.71151C14.4158 9.01073 14.6101 9.27172 14.8652 9.46303L16.6652 7.06303C16.873 7.21885 17.0313 7.43143 17.121 7.67515L14.3057 8.71151ZM14.8652 9.46303C15.1203 9.65435 15.4253 9.76781 15.7434 9.78977L15.95 6.79689C16.209 6.81478 16.4574 6.90719 16.6652 7.06303L14.8652 9.46303ZM15.79 9.79226L21.79 10.0189L21.9033 7.02107L15.9033 6.7944L15.79 9.79226ZM21.8222 10.0198C21.818 10.0197 21.8139 10.0184 21.8106 10.0159L23.5963 7.60525C23.0965 7.23494 22.4932 7.03036 21.8712 7.0202L21.8222 10.0198ZM21.8106 10.0159C21.8072 10.0134 21.8047 10.0099 21.8035 10.0059L24.6587 9.08514C24.4677 8.49305 24.0962 7.97557 23.5963 7.60525L21.8106 10.0159ZM21.8035 10.0059C21.8022 10.002 21.8022 9.99769 21.8034 9.99371L24.6611 10.9068C24.8505 10.3142 24.8496 9.67723 24.6587 9.08514L21.8035 10.0059ZM21.8034 9.99371C21.8047 9.98974 21.8072 9.98626 21.8105 9.98376L23.6028 12.3896C24.1017 12.0179 24.4717 11.4994 24.6611 10.9068L21.8034 9.99371ZM21.7796 10.0074L17.073 13.7074L18.927 16.0659L23.6337 12.3659L21.7796 10.0074ZM17.1084 13.6804C16.8359 13.8818 16.6322 14.1624 16.525 14.4839L19.3711 15.4326C19.283 15.6968 19.1155 15.9274 18.8916 16.0929L17.1084 13.6804ZM16.525 14.4839C16.4178 14.8054 16.4125 15.1521 16.5096 15.4767L19.3837 14.6166C19.4635 14.8834 19.4591 15.1683 19.3711 15.4326L16.525 14.4839ZM16.5036 15.4559L18.1369 21.2159L21.0231 20.3975L19.3898 14.6375L16.5036 15.4559ZM18.1281 21.1834C18.1276 21.1814 18.1275 21.1794 18.1279 21.1774L21.0653 21.7872C21.1585 21.3382 21.1471 20.8738 21.0319 20.4299L18.1281 21.1834ZM18.1279 21.1774C18.1283 21.1754 18.1292 21.1735 18.1305 21.1719L20.4944 23.019C20.7768 22.6576 20.9721 22.2361 21.0653 21.7872L18.1279 21.1774ZM18.1305 21.1719C18.1317 21.1702 18.1334 21.1689 18.1352 21.1681L19.4372 23.8708C19.8504 23.6718 20.2121 23.3803 20.4944 23.019L18.1305 21.1719ZM18.1352 21.1681C18.137 21.1672 18.1391 21.1667 18.1411 21.1667L18.1122 24.1666C18.5707 24.171 19.0241 24.0698 19.4372 23.8708L18.1352 21.1681ZM12.2029 19.2194C12.1962 19.2192 12.1897 19.2169 12.1843 19.213L13.9491 16.787C13.4658 16.4355 12.8877 16.2381 12.2904 16.2206L12.2029 19.2194ZM12.2315 19.246L17.2049 22.5793L18.8751 20.0873L13.9018 16.754L12.2315 19.246ZM17.1323 22.5275C17.4153 22.7426 17.7603 22.8604 18.1157 22.8632L18.1395 19.8633C18.4316 19.8656 18.7151 19.9624 18.9477 20.1391L17.1323 22.5275ZM18.1157 22.8632C18.4711 22.866 18.8179 22.7537 19.1042 22.5432L17.327 20.1262C17.5624 19.9532 17.8474 19.861 18.1395 19.8633L18.1157 22.8632ZM19.1042 22.5432C19.3905 22.3327 19.6011 22.0351 19.7044 21.695L16.8338 20.8233C16.9187 20.5438 17.0917 20.2993 17.327 20.1262L19.1042 22.5432ZM19.7044 21.695C19.8076 21.3549 19.7981 20.9905 19.6772 20.6563L16.8561 21.677C16.7568 21.4023 16.7489 21.1029 16.8338 20.8233L19.7044 21.695ZM19.7098 20.7575L18.0764 14.9975L15.1902 15.8159L16.8236 21.5759L19.7098 20.7575ZM18.0761 14.9963C18.0776 15.0014 18.0774 15.0068 18.0758 15.0119L15.2249 14.0778C15.0403 14.6411 15.0284 15.2468 15.1906 15.8171L18.0761 14.9963ZM18.0758 15.0119C18.0741 15.0169 18.071 15.0214 18.0668 15.0246L16.2265 12.6554C15.7583 13.019 15.4095 13.5144 15.2249 14.0778L18.0758 15.0119ZM18.0737 15.0192L22.7804 11.3192L20.9263 8.96075L16.2196 12.6608L18.0737 15.0192ZM22.7155 11.3675C23.0037 11.165 23.2195 10.8755 23.331 10.5413L20.4853 9.59154C20.577 9.31688 20.7543 9.07891 20.9912 8.91253L22.7155 11.3675ZM23.331 10.5413C23.4425 10.2071 23.4439 9.84601 23.3351 9.51102L20.482 10.4383C20.3925 10.163 20.3936 9.86619 20.4853 9.59154L23.331 10.5413ZM23.3351 9.51102C23.2262 9.17596 23.0127 8.88471 22.7261 8.68L20.9825 11.1213C20.7469 10.953 20.5715 10.7137 20.482 10.4383L23.3351 9.51102ZM22.7261 8.68C22.4394 8.47527 22.0947 8.36784 21.7425 8.37353L21.7909 11.3731C21.5014 11.3778 21.218 11.2895 20.9825 11.1213L22.7261 8.68ZM21.8233 8.3744L15.8233 8.14773L15.71 11.1456L21.71 11.3723L21.8233 8.3744ZM15.8251 8.1478C15.8291 8.14796 15.8329 8.14929 15.8361 8.15163L14.0673 10.5747C14.5454 10.9237 15.1167 11.1225 15.7082 11.1455L15.8251 8.1478ZM15.8361 8.15163C15.8393 8.15398 15.8418 8.15722 15.8431 8.16096L13.0236 9.18571C13.2258 9.74209 13.5891 10.2256 14.0673 10.5747L15.8361 8.15163ZM15.8412 8.15562L13.7745 2.53562L10.9588 3.57104L13.0255 9.19104L15.8412 8.15562ZM13.7985 2.60623C13.6939 2.27122 13.485 1.97838 13.2022 1.77045L11.4249 4.18733C11.1925 4.01643 11.0208 3.77576 10.9348 3.50043L13.7985 2.60623ZM13.2022 1.77045C12.9194 1.56252 12.5776 1.45038 12.2267 1.45038V4.45038C11.9382 4.45038 11.6573 4.35821 11.4249 4.18733L13.2022 1.77045ZM12.2267 1.45038C11.8757 1.45038 11.5339 1.56252 11.2511 1.77045L13.0284 4.18733C12.796 4.35821 12.5151 4.45038 12.2267 4.45038V1.45038ZM11.2511 1.77045C10.9684 1.97836 10.7595 2.27118 10.6548 2.60623L13.5185 3.50043C13.4325 3.7758 13.2608 4.01646 13.0284 4.18733L11.2511 1.77045ZM10.6774 2.53951L8.63075 8.15284L11.4492 9.18049L13.4959 3.56715L10.6774 2.53951ZM8.63022 8.15429C8.63158 8.15055 8.63402 8.14731 8.63722 8.14497L10.4061 10.568C10.8842 10.219 11.2476 9.73543 11.4498 9.17904L8.63022 8.15429ZM8.63722 8.14497C8.64043 8.14262 8.64427 8.14129 8.64824 8.14114L8.76509 11.1389C9.35664 11.1158 9.92791 10.9171 10.4061 10.568L8.63722 8.14497ZM8.65004 8.14107L2.65004 8.36773L2.76329 11.3656L8.76329 11.1389L8.65004 8.14107ZM2.73086 8.36686C2.37866 8.36118 2.0339 8.46859 1.74724 8.67333L3.49087 11.1146C3.25527 11.2829 2.97192 11.3711 2.68246 11.3665L2.73086 8.36686ZM1.74724 8.67333C1.46058 8.87807 1.24714 9.16934 1.13826 9.50435L3.99136 10.4316C3.90188 10.7069 3.72646 10.9463 3.49087 11.1146L1.74724 8.67333ZM1.13826 9.50435C1.02938 9.83937 1.03081 10.2005 1.14232 10.5346L3.98802 9.58488C4.07967 9.8595 4.08085 10.1563 3.99136 10.4316L1.13826 9.50435ZM1.14232 10.5346C1.25384 10.8687 1.46957 11.1583 1.75783 11.3608L3.48216 8.90586C3.71907 9.07227 3.89637 9.31026 3.98802 9.58488L1.14232 10.5346ZM1.69275 11.3124L6.40608 15.0191L8.26058 12.6609L3.54724 8.95426L1.69275 11.3124ZM6.40959 15.0218C6.40647 15.0194 6.40414 15.0161 6.4029 15.0123L9.25377 14.0782C9.06972 13.5165 8.72278 13.0222 8.25707 12.6582L6.40959 15.0218ZM6.4029 15.0123C6.40167 15.0085 6.40158 15.0045 6.40266 15.0007L9.29067 15.8127C9.45066 15.2436 9.43782 14.6399 9.25377 14.0782L6.4029 15.0123ZM6.40312 14.999L4.77646 20.759L7.66354 21.5743L9.2902 15.8143L6.40312 14.999ZM4.79836 20.6882C4.68465 21.026 4.68411 21.3917 4.79684 21.7299L7.64289 20.7813C7.73638 21.0617 7.73593 21.365 7.64163 21.6452L4.79836 20.6882ZM4.79684 21.7299C4.90957 22.0681 5.12943 22.3604 5.42313 22.5624L7.12353 20.0909C7.36708 20.2584 7.5494 20.5008 7.64289 20.7813L4.79684 21.7299ZM5.29833 22.4666C5.59417 22.7196 5.97068 22.8587 6.36 22.8587V19.8587C6.68575 19.8587 7.00079 19.975 7.24833 20.1868L5.29833 22.4666ZM6.36 22.8587C6.74932 22.8587 7.12582 22.7196 7.42166 22.4666L5.47166 20.1868C5.7192 19.975 6.03424 19.8587 6.36 19.8587V22.8587ZM7.28179 22.5727L12.2551 19.2393L10.5849 16.7473L5.61153 20.0806L7.28179 22.5727ZM12.2526 19.241C12.2471 19.2447 12.2406 19.2467 12.234 19.2467L12.246 16.2467C11.6558 16.2443 11.0783 16.418 10.5874 16.7456L12.2526 19.241ZM13.6952 18.1105L13.7019 18.0838L10.7914 17.3562L10.7848 17.3829L13.6952 18.1105Z" fill="white" mask="url(#path-1-inside-1_1_350)"/>
</g>
</g>
<defs>
<clipPath id="clip0_1_350">
<rect width="24" height="24" fill="white"/>
</clipPath>
</defs>
</svg>
