<svg width="32" height="32" viewBox="0 0 32 32" fill="none" xmlns="http://www.w3.org/2000/svg">
<g id="Group 15">
<rect id="Rectangle" width="32" height="33" rx="16" fill=""/>
<g id="005-dashboards">
<path id="Shape" fill-rule="evenodd" clip-rule="evenodd" d="M24 9.76786V13.3036C24 13.629 23.7442 13.8929 23.4286 13.8929H8.57143C8.25584 13.8929 8 13.629 8 13.3036V9.76786C8 8.7915 8.76751 8 9.71429 8H17.1429C17.4584 8 17.7143 8.26383 17.7143 8.58929C17.7143 8.91474 17.4584 9.17857 17.1429 9.17857H9.71429C9.39869 9.17857 9.14286 9.4424 9.14286 9.76786V12.7143H22.8571V9.76786C22.8571 9.4424 22.6013 9.17857 22.2857 9.17857H19.4286C19.113 9.17857 18.8571 8.91474 18.8571 8.58929C18.8571 8.26383 19.113 8 19.4286 8H22.2857C23.2325 8 24 8.7915 24 9.76786ZM8.57143 15.0714H13.1429C13.4584 15.0714 13.7143 15.3353 13.7143 15.6607V23.9107C13.7143 24.2362 13.4584 24.5 13.1429 24.5H9.71429C8.76751 24.5 8 23.7085 8 22.7321V15.6607C8 15.3353 8.25584 15.0714 8.57143 15.0714ZM9.71429 23.3214H12.5714V16.25H9.14286V22.7321C9.14286 23.0576 9.39869 23.3214 9.71429 23.3214ZM24 18.0179V15.6607C24 15.3353 23.7442 15.0714 23.4286 15.0714H15.4286C15.113 15.0714 14.8571 15.3353 14.8571 15.6607V23.9107C14.8571 24.2362 15.113 24.5 15.4286 24.5H22.2857C23.2325 24.5 24 23.7085 24 22.7321V20.375C24 20.0495 23.7442 19.7857 23.4286 19.7857C23.113 19.7857 22.8571 20.0495 22.8571 20.375V22.7321C22.8571 23.0576 22.6013 23.3214 22.2857 23.3214H16V16.25H22.8571V18.0179C22.8571 18.3433 23.113 18.6071 23.4286 18.6071C23.7442 18.6071 24 18.3433 24 18.0179Z" fill="#fff"/>
</g>
</g>
</svg>
