<svg width="17" height="16" viewBox="0 0 17 16" fill="none" xmlns="http://www.w3.org/2000/svg">
<g id="Frame">
<g clip-path="url(#clip0_1_757)">
<path id="Vector" d="M16.8438 8C16.8438 8.02812 16.8438 8.05625 16.8438 8.08438C16.8313 9.225 15.7937 10 14.6531 10H11.5938C10.7656 10 10.0938 10.6719 10.0938 11.5C10.0938 11.6062 10.1062 11.7094 10.125 11.8094C10.1906 12.1281 10.3281 12.4344 10.4625 12.7437C10.6531 13.175 10.8406 13.6031 10.8406 14.0562C10.8406 15.05 10.1656 15.9531 9.17188 15.9937C9.0625 15.9969 8.95312 16 8.84062 16C4.425 16 0.84375 12.4187 0.84375 8C0.84375 3.58125 4.425 0 8.84375 0C13.2625 0 16.8438 3.58125 16.8438 8ZM4.84375 9C4.84375 8.73478 4.73839 8.48043 4.55086 8.29289C4.36332 8.10536 4.10897 8 3.84375 8C3.57853 8 3.32418 8.10536 3.13664 8.29289C2.94911 8.48043 2.84375 8.73478 2.84375 9C2.84375 9.26522 2.94911 9.51957 3.13664 9.70711C3.32418 9.89464 3.57853 10 3.84375 10C4.10897 10 4.36332 9.89464 4.55086 9.70711C4.73839 9.51957 4.84375 9.26522 4.84375 9ZM4.84375 6C5.10897 6 5.36332 5.89464 5.55086 5.70711C5.73839 5.51957 5.84375 5.26522 5.84375 5C5.84375 4.73478 5.73839 4.48043 5.55086 4.29289C5.36332 4.10536 5.10897 4 4.84375 4C4.57853 4 4.32418 4.10536 4.13664 4.29289C3.94911 4.48043 3.84375 4.73478 3.84375 5C3.84375 5.26522 3.94911 5.51957 4.13664 5.70711C4.32418 5.89464 4.57853 6 4.84375 6ZM9.84375 3C9.84375 2.73478 9.73839 2.48043 9.55086 2.29289C9.36332 2.10536 9.10897 2 8.84375 2C8.57853 2 8.32418 2.10536 8.13664 2.29289C7.94911 2.48043 7.84375 2.73478 7.84375 3C7.84375 3.26522 7.94911 3.51957 8.13664 3.70711C8.32418 3.89464 8.57853 4 8.84375 4C9.10897 4 9.36332 3.89464 9.55086 3.70711C9.73839 3.51957 9.84375 3.26522 9.84375 3ZM12.8438 6C13.109 6 13.3633 5.89464 13.5509 5.70711C13.7384 5.51957 13.8438 5.26522 13.8438 5C13.8438 4.73478 13.7384 4.48043 13.5509 4.29289C13.3633 4.10536 13.109 4 12.8438 4C12.5785 4 12.3242 4.10536 12.1366 4.29289C11.9491 4.48043 11.8438 4.73478 11.8438 5C11.8438 5.26522 11.9491 5.51957 12.1366 5.70711C12.3242 5.89464 12.5785 6 12.8438 6Z" fill="black"/>
</g>
</g>
<defs>
<clipPath id="clip0_1_757">
<path d="M0.84375 0H16.8438V16H0.84375V0Z" fill="white"/>
</clipPath>
</defs>
</svg>
