<svg width="15" height="20" viewBox="0 0 15 20" fill="none" xmlns="http://www.w3.org/2000/svg">
<g id="Frame">
<g clip-path="url(#clip0_370_3009)">
<path id="Vector" d="M2.5 0C1.12109 0 0 1.12109 0 2.5V17.5C0 18.8789 1.12109 20 2.5 20H12.5C13.8789 20 15 18.8789 15 17.5V6.25H10C9.30859 6.25 8.75 5.69141 8.75 5V0H2.5ZM10 0V5H15L10 0ZM3.125 2.5H5.625C5.96875 2.5 6.25 2.78125 6.25 3.125C6.25 3.46875 5.96875 3.75 5.625 3.75H3.125C2.78125 3.75 2.5 3.46875 2.5 3.125C2.5 2.78125 2.78125 2.5 3.125 2.5ZM3.125 5H5.625C5.96875 5 6.25 5.28125 6.25 5.625C6.25 5.96875 5.96875 6.25 5.625 6.25H3.125C2.78125 6.25 2.5 5.96875 2.5 5.625C2.5 5.28125 2.78125 5 3.125 5ZM3.75 8.75H11.25C11.9414 8.75 12.5 9.30859 12.5 10V12.5C12.5 13.1914 11.9414 13.75 11.25 13.75H3.75C3.05859 13.75 2.5 13.1914 2.5 12.5V10C2.5 9.30859 3.05859 8.75 3.75 8.75ZM3.75 10V12.5H11.25V10H3.75ZM9.375 16.25H11.875C12.2188 16.25 12.5 16.5312 12.5 16.875C12.5 17.2188 12.2188 17.5 11.875 17.5H9.375C9.03125 17.5 8.75 17.2188 8.75 16.875C8.75 16.5312 9.03125 16.25 9.375 16.25Z" fill="#9F8F4B"/>
</g>
</g>
<defs>
<clipPath id="clip0_370_3009">
<path d="M0 0H15V20H0V0Z" fill="white"/>
</clipPath>
</defs>
</svg>
