<svg width="21" height="20" viewBox="0 0 21 20" fill="none" xmlns="http://www.w3.org/2000/svg">
<g id="Frame">
<g clip-path="url(#clip0_1_308)">
<path id="Vector" d="M14 10C14 10.8672 13.9531 11.7031 13.8711 12.5H6.62891C6.54297 11.7031 6.5 10.8672 6.5 10C6.5 9.13281 6.54688 8.29688 6.62891 7.5H13.8711C13.957 8.29688 14 9.13281 14 10ZM15.125 7.5H19.9336C20.1406 8.30078 20.25 9.13672 20.25 10C20.25 10.8633 20.1406 11.6992 19.9336 12.5H15.125C15.207 11.6953 15.25 10.8594 15.25 10C15.25 9.14062 15.207 8.30469 15.125 7.5ZM19.5234 6.25H14.9648C14.5742 3.75391 13.8008 1.66406 12.8047 0.328125C15.8633 1.13672 18.3516 3.35547 19.5195 6.25H19.5234ZM13.6992 6.25H6.80078C7.03906 4.82812 7.40625 3.57031 7.85547 2.55078C8.26562 1.62891 8.72266 0.960938 9.16406 0.539062C9.60156 0.125 9.96484 0 10.25 0C10.5352 0 10.8984 0.125 11.3359 0.539062C11.7773 0.960938 12.2344 1.62891 12.6445 2.55078C13.0977 3.56641 13.4609 4.82422 13.6992 6.25ZM5.53516 6.25H0.976562C2.14844 3.35547 4.63281 1.13672 7.69531 0.328125C6.69922 1.66406 5.92578 3.75391 5.53516 6.25ZM0.566406 7.5H5.375C5.29297 8.30469 5.25 9.14062 5.25 10C5.25 10.8594 5.29297 11.6953 5.375 12.5H0.566406C0.359375 11.6992 0.25 10.8633 0.25 10C0.25 9.13672 0.359375 8.30078 0.566406 7.5ZM7.85547 17.4453C7.40234 16.4297 7.03906 15.1719 6.80078 13.75H13.6992C13.4609 15.1719 13.0938 16.4297 12.6445 17.4453C12.2344 18.3672 11.7773 19.0352 11.3359 19.457C10.8984 19.875 10.5352 20 10.25 20C9.96484 20 9.60156 19.875 9.16406 19.4609C8.72266 19.0391 8.26562 18.3711 7.85547 17.4492V17.4453ZM5.53516 13.75C5.92578 16.2461 6.69922 18.3359 7.69531 19.6719C4.63281 18.8633 2.14844 16.6445 0.976562 13.75H5.53516ZM19.5234 13.75C18.3516 16.6445 15.8672 18.8633 12.8086 19.6719C13.8047 18.3359 14.5742 16.2461 14.9688 13.75H19.5234Z" fill="#4B5563"/>
</g>
</g>
<defs>
<clipPath id="clip0_1_308">
<path d="M0.25 0H20.25V20H0.25V0Z" fill="white"/>
</clipPath>
</defs>
</svg>
