<svg width="14" height="14" viewBox="0 0 14 14" fill="none" xmlns="http://www.w3.org/2000/svg">
<g id="Frame">
<g clip-path="url(#clip0_177_7970)">
<path id="Vector" d="M12.8953 0.593362C12.2965 -0.00546572 11.3285 -0.00546572 10.7297 0.593362L9.90664 1.41367L12.5836 4.09063L13.4066 3.26758C14.0055 2.66875 14.0055 1.70078 13.4066 1.10196L12.8953 0.593362ZM4.71406 6.60899C4.54727 6.77578 4.41875 6.98086 4.34492 7.20782L3.53555 9.63594C3.45625 9.8711 3.51914 10.1309 3.69414 10.3086C3.86914 10.4863 4.12891 10.5465 4.3668 10.4672L6.79492 9.65782C7.01914 9.58399 7.22422 9.45547 7.39375 9.28868L11.9684 4.71133L9.28867 2.03164L4.71406 6.60899ZM2.625 1.75C1.17578 1.75 0 2.92578 0 4.375V11.375C0 12.8242 1.17578 14 2.625 14H9.625C11.0742 14 12.25 12.8242 12.25 11.375V8.75C12.25 8.26602 11.859 7.875 11.375 7.875C10.891 7.875 10.5 8.26602 10.5 8.75V11.375C10.5 11.859 10.109 12.25 9.625 12.25H2.625C2.14102 12.25 1.75 11.859 1.75 11.375V4.375C1.75 3.89102 2.14102 3.5 2.625 3.5H5.25C5.73398 3.5 6.125 3.10899 6.125 2.625C6.125 2.14102 5.73398 1.75 5.25 1.75H2.625Z" fill="#2563EB"/>
</g>
</g>
<defs>
<clipPath id="clip0_177_7970">
<path d="M0 0H14V14H0V0Z" fill="white"/>
</clipPath>
</defs>
</svg>
