<svg width="21" height="16" viewBox="0 0 21 16" fill="none" xmlns="http://www.w3.org/2000/svg">
<g id="Frame">
<g clip-path="url(#clip0_1_750)">
<path id="Vector" d="M12.9313 0.0374825C12.4 -0.115643 11.8469 0.193733 11.6938 0.724983L7.69376 14.725C7.54064 15.2562 7.85001 15.8094 8.38126 15.9625C8.91251 16.1156 9.46564 15.8062 9.61876 15.275L13.6188 1.27498C13.7719 0.743732 13.4625 0.190607 12.9313 0.0374825ZM15.45 3.79061C15.0594 4.18123 15.0594 4.81561 15.45 5.20623L18.2406 7.99998L15.4469 10.7937C15.0563 11.1844 15.0563 11.8187 15.4469 12.2094C15.8375 12.6 16.4719 12.6 16.8625 12.2094L20.3625 8.70936C20.7531 8.31873 20.7531 7.68436 20.3625 7.29373L16.8625 3.79373C16.4719 3.40311 15.8375 3.40311 15.4469 3.79373L15.45 3.79061ZM5.86564 3.79061C5.47501 3.39998 4.84064 3.39998 4.45001 3.79061L0.950012 7.29061C0.559387 7.68123 0.559387 8.31561 0.950012 8.70623L4.45001 12.2062C4.84064 12.5969 5.47501 12.5969 5.86564 12.2062C6.25626 11.8156 6.25626 11.1812 5.86564 10.7906L3.07189 7.99998L5.86564 5.20623C6.25626 4.81561 6.25626 4.18123 5.86564 3.79061Z" fill="black"/>
</g>
</g>
<defs>
<clipPath id="clip0_1_750">
<path d="M0.65625 0H20.6562V16H0.65625V0Z" fill="white"/>
</clipPath>
</defs>
</svg>
