<svg width="32" height="32" viewBox="0 0 32 32" fill="none" xmlns="http://www.w3.org/2000/svg">
<g id="ep:back">
<path id="Vector" d="M7 15H27C27.2652 15 27.5196 15.1054 27.7071 15.2929C27.8946 15.4804 28 15.7348 28 16C28 16.2652 27.8946 16.5196 27.7071 16.7071C27.5196 16.8946 27.2652 17 27 17H7C6.73478 17 6.48043 16.8946 6.29289 16.7071C6.10536 16.5196 6 16.2652 6 16C6 15.7348 6.10536 15.4804 6.29289 15.2929C6.48043 15.1054 6.73478 15 7 15Z" fill="#1B3664"/>
<path id="Vector_2" d="M7.414 16L15.708 24.292C15.8958 24.4798 16.0013 24.7344 16.0013 25C16.0013 25.2655 15.8958 25.5202 15.708 25.708C15.5202 25.8958 15.2656 26.0013 15 26.0013C14.7345 26.0013 14.4798 25.8958 14.292 25.708L5.292 16.708C5.19888 16.6151 5.12499 16.5048 5.07458 16.3833C5.02416 16.2618 4.99821 16.1315 4.99821 16C4.99821 15.8685 5.02416 15.7382 5.07458 15.6167C5.12499 15.4952 5.19888 15.3849 5.292 15.292L14.292 6.292C14.4798 6.10422 14.7345 5.99873 15 5.99873C15.2656 5.99873 15.5202 6.10422 15.708 6.292C15.8958 6.47977 16.0013 6.73445 16.0013 7C16.0013 7.26555 15.8958 7.52022 15.708 7.708L7.414 16Z" fill="#1B3664"/>
</g>
</svg>
