<svg width="24" height="24" viewBox="0 0 24 24" fill="none" xmlns="http://www.w3.org/2000/svg">
<g id="Frame">
<path d="M0 0H24V24H0V0Z" stroke="#E5E7EB"/>
<path id="Vector" d="M4.92656 9.49707C5.2875 8.4752 5.87344 7.51426 6.69844 6.69395C9.62812 3.76426 14.3766 3.76426 17.3063 6.69395L18.1078 7.5002H15.75C14.9203 7.5002 14.25 8.17051 14.25 9.0002C14.25 9.82988 14.9203 10.5002 15.75 10.5002H21.7266H21.7453C22.575 10.5002 23.2453 9.82988 23.2453 9.0002V3.0002C23.2453 2.17051 22.575 1.5002 21.7453 1.5002C20.9156 1.5002 20.2453 2.17051 20.2453 3.0002V5.4002L19.425 4.5752C15.3234 0.473633 8.67656 0.473633 4.575 4.5752C3.43125 5.71895 2.60625 7.06426 2.1 8.50332C1.82344 9.28613 2.23594 10.1393 3.01406 10.4158C3.79219 10.6924 4.65 10.2799 4.92656 9.50176V9.49707ZM1.82812 13.5611C1.59375 13.6314 1.36875 13.758 1.18594 13.9455C0.998437 14.133 0.871875 14.358 0.80625 14.6018C0.792188 14.658 0.778125 14.7189 0.76875 14.7799C0.754687 14.8596 0.75 14.9393 0.75 15.0189V21.0002C0.75 21.8299 1.42031 22.5002 2.25 22.5002C3.07969 22.5002 3.75 21.8299 3.75 21.0002V18.6049L4.575 19.4252C8.67656 23.5221 15.3234 23.5221 19.4203 19.4252C20.5641 18.2814 21.3938 16.9361 21.9 15.5018C22.1766 14.7189 21.7641 13.8658 20.9859 13.5893C20.2078 13.3127 19.35 13.7252 19.0734 14.5033C18.7125 15.5252 18.1266 16.4861 17.3016 17.3064C14.3719 20.2361 9.62344 20.2361 6.69375 17.3064L6.68906 17.3018L5.8875 16.5002H8.25C9.07969 16.5002 9.75 15.8299 9.75 15.0002C9.75 14.1705 9.07969 13.5002 8.25 13.5002H2.26875C2.19375 13.5002 2.11875 13.5049 2.04375 13.5143C1.96875 13.5236 1.89844 13.5377 1.82812 13.5611Z" fill="#DC2626"/>
</g>
</svg>
