<svg width="13" height="16" viewBox="0 0 13 16" fill="none" xmlns="http://www.w3.org/2000/svg">
<g id="Frame">
<g clip-path="url(#clip0_372_4428)">
<path id="Vector" d="M2.57812 0C1.475 0 0.578125 0.896875 0.578125 2V14C0.578125 15.1031 1.475 16 2.57812 16H10.5781C11.6812 16 12.5781 15.1031 12.5781 14V5H8.57812C8.025 5 7.57812 4.55312 7.57812 4V0H2.57812ZM8.57812 0V4H12.5781L8.57812 0ZM5.44375 7.81875L6.57812 9.44063L7.7125 7.81875C7.95 7.47813 8.41875 7.39687 8.75625 7.63438C9.09375 7.87188 9.17813 8.34063 8.94063 8.67813L7.49375 10.75L8.94375 12.8188C9.18125 13.1594 9.1 13.625 8.75937 13.8625C8.41875 14.1 7.95312 14.0188 7.71562 13.6781L6.57812 12.0562L5.44375 13.6781C5.20625 14.0188 4.7375 14.1 4.4 13.8625C4.0625 13.625 3.97813 13.1562 4.21563 12.8188L5.6625 10.75L4.2125 8.68125C3.975 8.34062 4.05625 7.875 4.39687 7.6375C4.7375 7.4 5.20312 7.48125 5.44063 7.82188L5.44375 7.81875Z" fill="black"/>
</g>
</g>
<defs>
<clipPath id="clip0_372_4428">
<path d="M0.578125 0H12.5781V16H0.578125V0Z" fill="white"/>
</clipPath>
</defs>
</svg>
