<svg width="17" height="16" viewBox="0 0 17 16" fill="none" xmlns="http://www.w3.org/2000/svg">
<g id="Frame">
<g clip-path="url(#clip0_372_4433)">
<path id="Vector" d="M0.015625 2C0.015625 0.896875 0.9125 0 2.01562 0H7.01562V4C7.01562 4.55312 7.4625 5 8.01562 5H12.0156V9.5H5.51562C4.4125 9.5 3.51562 10.3969 3.51562 11.5V16H2.01562C0.9125 16 0.015625 15.1031 0.015625 14V2ZM12.0156 4H8.01562V0L12.0156 4ZM5.51562 11H6.51562C7.48125 11 8.26562 11.7844 8.26562 12.75C8.26562 13.7156 7.48125 14.5 6.51562 14.5H6.01562V15.5C6.01562 15.775 5.79063 16 5.51562 16C5.24062 16 5.01562 15.775 5.01562 15.5V14V11.5C5.01562 11.225 5.24062 11 5.51562 11ZM6.51562 13.5C6.93125 13.5 7.26562 13.1656 7.26562 12.75C7.26562 12.3344 6.93125 12 6.51562 12H6.01562V13.5H6.51562ZM9.51562 11H10.5156C11.3438 11 12.0156 11.6719 12.0156 12.5V14.5C12.0156 15.3281 11.3438 16 10.5156 16H9.51562C9.24063 16 9.01562 15.775 9.01562 15.5V11.5C9.01562 11.225 9.24063 11 9.51562 11ZM10.5156 15C10.7906 15 11.0156 14.775 11.0156 14.5V12.5C11.0156 12.225 10.7906 12 10.5156 12H10.0156V15H10.5156ZM13.0156 11.5C13.0156 11.225 13.2406 11 13.5156 11H15.0156C15.2906 11 15.5156 11.225 15.5156 11.5C15.5156 11.775 15.2906 12 15.0156 12H14.0156V13H15.0156C15.2906 13 15.5156 13.225 15.5156 13.5C15.5156 13.775 15.2906 14 15.0156 14H14.0156V15.5C14.0156 15.775 13.7906 16 13.5156 16C13.2406 16 13.0156 15.775 13.0156 15.5V13.5V11.5Z" fill="black"/>
</g>
</g>
<defs>
<clipPath id="clip0_372_4433">
<path d="M0.015625 0H16.0156V16H0.015625V0Z" fill="white"/>
</clipPath>
</defs>
</svg>
