<svg width="18" height="16" viewBox="0 0 18 16" fill="none" xmlns="http://www.w3.org/2000/svg">
<g id="Frame">
<g clip-path="url(#clip0_1_820)">
<path id="Vector" d="M9.00001 2.5C6.96251 2.5 5.28751 3.425 4.00314 4.61562C2.80001 5.73438 1.96876 7.0625 1.54376 8C1.96876 8.9375 2.80001 10.2656 4.00001 11.3844C5.28751 12.575 6.96251 13.5 9.00001 13.5C11.0375 13.5 12.7125 12.575 13.9969 11.3844C15.2 10.2656 16.0313 8.9375 16.4563 8C16.0313 7.0625 15.2 5.73438 14 4.61562C12.7125 3.425 11.0375 2.5 9.00001 2.5ZM2.98126 3.51875C4.45314 2.15 6.47501 1 9.00001 1C11.525 1 13.5469 2.15 15.0188 3.51875C16.4813 4.87812 17.4594 6.5 17.925 7.61562C18.0281 7.8625 18.0281 8.1375 17.925 8.38437C17.4594 9.5 16.4813 11.125 15.0188 12.4812C13.5469 13.85 11.525 15 9.00001 15C6.47501 15 4.45314 13.85 2.98126 12.4812C1.51876 11.125 0.540637 9.5 0.0781372 8.38437C-0.0249878 8.1375 -0.0249878 7.8625 0.0781372 7.61562C0.540637 6.5 1.51876 4.875 2.98126 3.51875ZM9.00001 10.5C10.3813 10.5 11.5 9.38125 11.5 8C11.5 6.61875 10.3813 5.5 9.00001 5.5C8.97814 5.5 8.95939 5.5 8.93751 5.5C8.97814 5.65938 9.00001 5.82812 9.00001 6C9.00001 7.10313 8.10314 8 7.00001 8C6.82814 8 6.65939 7.97813 6.50001 7.9375C6.50001 7.95937 6.50001 7.97813 6.50001 8C6.50001 9.38125 7.61876 10.5 9.00001 10.5ZM9.00001 4C10.0609 4 11.0783 4.42143 11.8284 5.17157C12.5786 5.92172 13 6.93913 13 8C13 9.06087 12.5786 10.0783 11.8284 10.8284C11.0783 11.5786 10.0609 12 9.00001 12C7.93915 12 6.92173 11.5786 6.17159 10.8284C5.42144 10.0783 5.00001 9.06087 5.00001 8C5.00001 6.93913 5.42144 5.92172 6.17159 5.17157C6.92173 4.42143 7.93915 4 9.00001 4Z" fill="#2563EB"/>
</g>
</g>
<defs>
<clipPath id="clip0_1_820">
<path d="M0 0H18V16H0V0Z" fill="white"/>
</clipPath>
</defs>
</svg>
