<svg width="22" height="22" viewBox="0 0 22 22" fill="none" xmlns="http://www.w3.org/2000/svg">
<g id="ic_moreVertical">
<path id="Vector" d="M11.281 11.6942C11.7712 11.6942 12.1686 11.2968 12.1686 10.8065C12.1686 10.3163 11.7712 9.91895 11.281 9.91895C10.7908 9.91895 10.3934 10.3163 10.3934 10.8065C10.3934 11.2968 10.7908 11.6942 11.281 11.6942Z" stroke="#2E2E2E" stroke-width="2" stroke-linecap="round" stroke-linejoin="round"/>
<path id="Vector_2" d="M11.281 5.48126C11.7712 5.48126 12.1686 5.08387 12.1686 4.59366C12.1686 4.10345 11.7712 3.70605 11.281 3.70605C10.7908 3.70605 10.3934 4.10345 10.3934 4.59366C10.3934 5.08387 10.7908 5.48126 11.281 5.48126Z" stroke="#2E2E2E" stroke-width="2" stroke-linecap="round" stroke-linejoin="round"/>
<path id="Vector_3" d="M11.281 17.907C11.7712 17.907 12.1686 17.5096 12.1686 17.0194C12.1686 16.5292 11.7712 16.1318 11.281 16.1318C10.7908 16.1318 10.3934 16.5292 10.3934 17.0194C10.3934 17.5096 10.7908 17.907 11.281 17.907Z" stroke="#2E2E2E" stroke-width="2" stroke-linecap="round" stroke-linejoin="round"/>
</g>
</svg>
