<svg width="30" height="24" viewBox="0 0 30 24" fill="none" xmlns="http://www.w3.org/2000/svg">
<g id="Frame">
<g clip-path="url(#clip0_370_3306)">
<path id="Vector" d="M0 22.8752V8.02988C0 6.80176 0.745313 5.7002 1.88438 5.24551L14.4422 0.225195C14.7984 0.0798828 15.1969 0.0798828 15.5578 0.225195L28.1156 5.24551C29.2547 5.7002 30 6.80645 30 8.02988V22.8752C30 23.4986 29.4984 24.0002 28.875 24.0002H26.625C26.0016 24.0002 25.5 23.4986 25.5 22.8752V10.5002C25.5 9.67051 24.8297 9.00019 24 9.00019H6C5.17031 9.00019 4.5 9.67051 4.5 10.5002V22.8752C4.5 23.4986 3.99844 24.0002 3.375 24.0002H1.125C0.501562 24.0002 0 23.4986 0 22.8752ZM22.875 24.0002H7.125C6.50156 24.0002 6 23.4986 6 22.8752V20.2502H24V22.8752C24 23.4986 23.4984 24.0002 22.875 24.0002ZM6 18.7502V15.7502H24V18.7502H6ZM6 14.2502V10.5002H24V14.2502H6Z" fill="#EA580C"/>
</g>
</g>
<defs>
<clipPath id="clip0_370_3306">
<path d="M0 0H30V24H0V0Z" fill="white"/>
</clipPath>
</defs>
</svg>
