<svg width="18" height="20" viewBox="0 0 18 20" fill="none" xmlns="http://www.w3.org/2000/svg">
<g id="Frame">
<g clip-path="url(#clip0_1_316)">
<path id="Vector" d="M16.5 1.25H1.49609C0.808594 1.25 0.25 1.81641 0.25 2.51172V17.4883C0.25 18.1836 0.808594 18.75 1.49609 18.75H16.5C17.1875 18.75 17.75 18.1836 17.75 17.4883V2.51172C17.75 1.81641 17.1875 1.25 16.5 1.25ZM5.53906 16.25H2.94531V7.89844H5.54297V16.25H5.53906ZM4.24219 6.75781C3.41016 6.75781 2.73828 6.08203 2.73828 5.25391C2.73828 4.42578 3.41016 3.75 4.24219 3.75C5.07031 3.75 5.74609 4.42578 5.74609 5.25391C5.74609 6.08594 5.07422 6.75781 4.24219 6.75781ZM15.2617 16.25H12.668V12.1875C12.668 11.2188 12.6484 9.97266 11.3203 9.97266C9.96875 9.97266 9.76172 11.0273 9.76172 12.1172V16.25H7.16797V7.89844H9.65625V9.03906H9.69141C10.0391 8.38281 10.8867 7.69141 12.1484 7.69141C14.7734 7.69141 15.2617 9.42188 15.2617 11.6719V16.25Z" fill="#4B5563"/>
</g>
</g>
<defs>
<clipPath id="clip0_1_316">
<path d="M0.25 0H17.75V20H0.25V0Z" fill="white"/>
</clipPath>
</defs>
</svg>
