<svg width="24" height="24" viewBox="0 0 24 24" fill="none" xmlns="http://www.w3.org/2000/svg">
<g id="circum:logout">
<path id="Vector" d="M20.9683 18.4478C20.9586 18.7929 20.8796 19.1326 20.7361 19.4467C20.5925 19.7607 20.3874 20.0427 20.1327 20.2759C19.8781 20.5091 19.5791 20.6887 19.2537 20.8041C18.9283 20.9196 18.583 20.9684 18.2383 20.9478C16.0853 20.9598 13.9323 20.9478 11.7793 20.9478C11.6467 20.9478 11.5195 20.8951 11.4257 20.8013C11.332 20.7076 11.2793 20.5804 11.2793 20.4478C11.2793 20.3152 11.332 20.188 11.4257 20.0942C11.5195 20.0004 11.6467 19.9478 11.7793 19.9478C13.9793 19.9478 16.1793 19.9798 18.3793 19.9478C19.4863 19.9318 19.9683 19.0998 19.9683 18.1098V5.64677C19.9755 5.33215 19.8867 5.02281 19.7138 4.75987C19.5409 4.49693 19.292 4.29285 19.0003 4.17477C18.6551 4.08006 18.2958 4.04789 17.9393 4.07977H11.7793C11.6467 4.07977 11.5195 4.02709 11.4257 3.93332C11.332 3.83956 11.2793 3.71238 11.2793 3.57977C11.2793 3.44716 11.332 3.31998 11.4257 3.22622C11.5195 3.13245 11.6467 3.07977 11.7793 3.07977C14.0033 3.07977 16.2443 2.99477 18.4663 3.07977C18.8066 3.08838 19.1417 3.16457 19.4523 3.30391C19.7628 3.44326 20.0426 3.64298 20.2752 3.89144C20.5079 4.13991 20.6888 4.43216 20.8074 4.75119C20.9261 5.07022 20.9801 5.40967 20.9663 5.74977L20.9683 18.4478Z" fill="white"/>
<path id="Vector_2" d="M3.17569 11.6629C3.09163 11.7451 3.04225 11.8564 3.03769 11.9739C3.03902 11.9879 3.03702 12.0022 3.03169 12.0169C3.02369 12.0389 3.03169 12.0439 3.03769 12.0579C3.04199 12.1757 3.0914 12.2874 3.17569 12.3699L6.84469 16.0389C6.93899 16.13 7.06529 16.1804 7.19639 16.1792C7.32749 16.1781 7.45289 16.1255 7.5456 16.0328C7.6383 15.9401 7.69088 15.8147 7.69202 15.6836C7.69316 15.5525 7.64277 15.4262 7.55169 15.3319L4.73669 12.5159H15.4787C15.6113 12.5159 15.7385 12.4632 15.8322 12.3694C15.926 12.2757 15.9787 12.1485 15.9787 12.0159C15.9787 11.8833 15.926 11.7561 15.8322 11.6623C15.7385 11.5686 15.6113 11.5159 15.4787 11.5159H4.73669L7.55169 8.69989C7.64277 8.60559 7.69316 8.47929 7.69202 8.34819C7.69088 8.2171 7.6383 8.09169 7.5456 7.99899C7.45289 7.90628 7.32749 7.8537 7.19639 7.85256C7.06529 7.85142 6.93899 7.90182 6.84469 7.99289L3.17569 11.6629Z" fill="white"/>
</g>
</svg>
