<svg width="17" height="16" viewBox="0 0 17 16" fill="none" xmlns="http://www.w3.org/2000/svg">
<g id="Frame">
<g clip-path="url(#clip0_1_764)">
<path id="Vector" d="M15.3125 0.99997C15.3125 0.596845 15.0688 0.23122 14.6938 0.0749697C14.3188 -0.0812803 13.8906 0.00621966 13.6031 0.290595L12.2406 1.65622C10.7406 3.15622 8.70625 3.99997 6.58437 3.99997H6.3125H5.3125H2.3125C1.20938 3.99997 0.3125 4.89684 0.3125 5.99997V8.99997C0.3125 10.1031 1.20938 11 2.3125 11V15C2.3125 15.5531 2.75938 16 3.3125 16H5.3125C5.86562 16 6.3125 15.5531 6.3125 15V11H6.58437C8.70625 11 10.7406 11.8437 12.2406 13.3437L13.6031 14.7062C13.8906 14.9937 14.3188 15.0781 14.6938 14.9218C15.0688 14.7656 15.3125 14.4031 15.3125 13.9968V9.38747C15.8938 9.11247 16.3125 8.37184 16.3125 7.49997C16.3125 6.62809 15.8938 5.88747 15.3125 5.61247V0.99997ZM13.3125 3.39684V7.49997V11.6031C11.475 9.93122 9.07812 8.99997 6.58437 8.99997H6.3125V5.99997H6.58437C9.07812 5.99997 11.475 5.06872 13.3125 3.39684Z" fill="black"/>
</g>
</g>
<defs>
<clipPath id="clip0_1_764">
<path d="M0.3125 0H16.3125V16H0.3125V0Z" fill="white"/>
</clipPath>
</defs>
</svg>
