<svg width="23" height="20" viewBox="0 0 23 20" fill="none" xmlns="http://www.w3.org/2000/svg">
<g id="Frame">
<g clip-path="url(#clip0_70_1906)">
<path id="Vector" d="M11.3594 1.89844L14.4219 3.05859L11.25 4.27734L8.07812 3.05859L11.1406 1.89844C11.2109 1.87109 11.2891 1.87109 11.3633 1.89844H11.3594ZM5.3125 3.61328V7.99609C5.26172 8.01172 5.21094 8.02734 5.16016 8.04688L1.41016 9.46875C0.5625 9.78906 0 10.6055 0 11.5117V16.168C0 17.0352 0.511719 17.8203 1.30859 18.1719L5.05859 19.8203C5.62109 20.0664 6.25781 20.0664 6.82031 19.8203L11.25 17.8711L15.6836 19.8203C16.2461 20.0664 16.8828 20.0664 17.4453 19.8203L21.1953 18.1719C21.9883 17.8242 22.5039 17.0352 22.5039 16.168V11.5117C22.5039 10.6016 21.9414 9.78906 21.0938 9.46484L17.3438 8.04297C17.293 8.02344 17.2422 8.00781 17.1914 7.99219V3.61328C17.1914 2.70312 16.6289 1.89062 15.7812 1.56641L12.0312 0.144531C11.5312 -0.0429688 10.9805 -0.0429688 10.4805 0.144531L6.73047 1.56641C5.875 1.89062 5.3125 2.70703 5.3125 3.61328ZM15.3125 8.22656L12.0938 9.44531V5.96094L15.3125 4.72656V8.22656ZM6.04688 9.80078L9.10938 10.9609L5.9375 12.1758L2.76562 10.9609L5.82812 9.80078C5.89844 9.77344 5.97656 9.77344 6.05078 9.80078H6.04688ZM6.78125 17.7852V13.8594L10 12.625V16.3711L6.78125 17.7852ZM16.4531 9.80078C16.5234 9.77344 16.6016 9.77344 16.6758 9.80078L19.7383 10.9609L16.5625 12.1758L13.3906 10.9609L16.4531 9.80078ZM20.4375 16.4531L17.4062 17.7852V13.8594L20.625 12.625V16.168C20.625 16.293 20.5508 16.4023 20.4375 16.4531Z" fill="#0D9488"/>
</g>
</g>
<defs>
<clipPath id="clip0_70_1906">
<path d="M0 0H22.5V20H0V0Z" fill="white"/>
</clipPath>
</defs>
</svg>
