<svg width="20" height="16" viewBox="0 0 20 16" fill="none" xmlns="http://www.w3.org/2000/svg">
<g id="Frame">
<g clip-path="url(#clip0_464_53)">
<path id="Vector" d="M16.7188 1.28145C16.425 0.987697 16.425 0.512697 16.7188 0.222072C17.0125 -0.0685531 17.4875 -0.0716781 17.7781 0.222072L19.7781 2.22207C19.9188 2.3627 19.9969 2.55332 19.9969 2.75332C19.9969 2.95332 19.9188 3.14395 19.7781 3.28457L17.7781 5.28457C17.4844 5.57832 17.0094 5.57832 16.7188 5.28457C16.4281 4.99082 16.425 4.51582 16.7188 4.2252L17.4375 3.50645L12 3.5002C11.5844 3.5002 11.25 3.16582 11.25 2.7502C11.25 2.33457 11.5844 2.0002 12 2.0002H17.4406L16.7188 1.28145ZM3.28125 11.7814L2.5625 12.5002H8C8.41562 12.5002 8.75 12.8346 8.75 13.2502C8.75 13.6658 8.41562 14.0002 8 14.0002H2.55938L3.27813 14.7189C3.57188 15.0127 3.57188 15.4877 3.27813 15.7783C2.98438 16.0689 2.50938 16.0721 2.21875 15.7783L0.21875 13.7814C0.078125 13.6408 0 13.4502 0 13.2502C0 13.0502 0.078125 12.8596 0.21875 12.7189L2.21875 10.7189C2.5125 10.4252 2.9875 10.4252 3.27813 10.7189C3.56875 11.0127 3.57188 11.4877 3.27813 11.7783L3.28125 11.7814ZM3 2.0002H10.5594C10.4437 2.2252 10.375 2.47832 10.375 2.7502C10.375 3.64707 11.1031 4.3752 12 4.3752H15.6687C15.5437 4.90645 15.6875 5.48457 16.1 5.9002C16.7344 6.53457 17.7625 6.53457 18.3969 5.9002L19 5.29707V12.0002C19 13.1033 18.1031 14.0002 17 14.0002H9.44063C9.55625 13.7752 9.625 13.5221 9.625 13.2502C9.625 12.3533 8.89688 11.6252 8 11.6252H4.33125C4.45625 11.0939 4.3125 10.5158 3.9 10.1002C3.26562 9.46582 2.2375 9.46582 1.60312 10.1002L1 10.7033V4.0002C1 2.89707 1.89688 2.0002 3 2.0002ZM5 4.0002H3V6.0002C4.10313 6.0002 5 5.10332 5 4.0002ZM17 10.0002C15.8969 10.0002 15 10.8971 15 12.0002H17V10.0002ZM10 11.0002C10.7956 11.0002 11.5587 10.6841 12.1213 10.1215C12.6839 9.55891 13 8.79585 13 8.0002C13 7.20455 12.6839 6.44149 12.1213 5.87888C11.5587 5.31627 10.7956 5.0002 10 5.0002C9.20435 5.0002 8.44129 5.31627 7.87868 5.87888C7.31607 6.44149 7 7.20455 7 8.0002C7 8.79585 7.31607 9.55891 7.87868 10.1215C8.44129 10.6841 9.20435 11.0002 10 11.0002Z" fill="#059669"/>
</g>
</g>
<defs>
<clipPath id="clip0_464_53">
<path d="M0 0H20V16H0V0Z" fill="white"/>
</clipPath>
</defs>
</svg>
