<svg width="27" height="24" viewBox="0 0 27 24" fill="none" xmlns="http://www.w3.org/2000/svg">
<g id="Frame">
<g clip-path="url(#clip0_370_3334)">
<path id="Vector" d="M0 1.5C0 0.670312 0.670312 0 1.5 0H4.91719C6.20625 0 7.35469 0.825 7.7625 2.05312L12.0797 15C13.4906 15.0234 14.7422 15.6984 15.5484 16.7344L25.0219 13.575C25.8094 13.3125 26.6578 13.7391 26.9203 14.5219C27.1828 15.3047 26.7562 16.1578 25.9734 16.4203L16.5 19.5797C16.4578 22.0266 14.4609 24 12 24C9.51562 24 7.5 21.9844 7.5 19.5C7.5 18.0562 8.17969 16.7719 9.23438 15.9469L4.91719 3H1.5C0.670312 3 0 2.32969 0 1.5ZM11.475 6.30469C11.2172 5.51719 11.6484 4.66875 12.4359 4.41562L14.5781 3.72188L15.5062 6.57656L18.3609 5.64844L17.4281 2.79375L19.5703 2.1C20.3578 1.84219 21.2062 2.27344 21.4594 3.06094L23.775 10.1953C24.0328 10.9828 23.6016 11.8312 22.8141 12.0844L15.6797 14.4C14.8922 14.6578 14.0438 14.2266 13.7906 13.4391L11.475 6.30469Z" fill="#0D9488"/>
</g>
</g>
<defs>
<clipPath id="clip0_370_3334">
<path d="M0 0H27V24H0V0Z" fill="white"/>
</clipPath>
</defs>
</svg>
