<svg width="14" height="15" viewBox="0 0 14 15" fill="none" xmlns="http://www.w3.org/2000/svg">
<g id="Frame">
<g clip-path="url(#clip0_62_2495)">
<path id="Vector" d="M12.8523 8.36807C13.1941 8.02627 13.1941 7.47119 12.8523 7.1294L8.47734 2.75439C8.13555 2.4126 7.58047 2.4126 7.23867 2.75439C6.89687 3.09619 6.89687 3.65127 7.23867 3.99307L10.1234 6.8751H1.73438C1.25039 6.8751 0.859375 7.26611 0.859375 7.7501C0.859375 8.23408 1.25039 8.6251 1.73438 8.6251H10.1207L7.24141 11.5071C6.89961 11.8489 6.89961 12.404 7.24141 12.7458C7.5832 13.0876 8.13828 13.0876 8.48008 12.7458L12.8551 8.3708L12.8523 8.36807Z" fill="#2563EB"/>
</g>
</g>
<defs>
<clipPath id="clip0_62_2495">
<path d="M0.859375 0.75H13.1094V14.75H0.859375V0.75Z" fill="white"/>
</clipPath>
</defs>
</svg>
