<svg width="25" height="20" viewBox="0 0 25 20" fill="none" xmlns="http://www.w3.org/2000/svg">
<g id="Frame">
<g clip-path="url(#clip0_70_1909)">
<path id="Vector" d="M12.0507 5.28516C12.328 5.03906 12.4374 4.65234 12.2928 4.30859C12.203 4.10156 12.1053 3.89844 11.996 3.70312L11.8749 3.49219C11.7577 3.29688 11.6288 3.10547 11.4921 2.92188C11.2694 2.625 10.8788 2.52734 10.5272 2.64453L9.42566 3.00781C9.00769 2.66406 8.52722 2.38281 8.0116 2.19141L7.77332 1.05859C7.6991 0.695312 7.41785 0.40625 7.05066 0.363281C6.79285 0.328125 6.53113 0.3125 6.2655 0.3125H6.23816C5.97253 0.3125 5.71082 0.328125 5.453 0.359375C5.08582 0.402344 4.80457 0.695312 4.73035 1.05469L4.49207 2.19141C3.97254 2.38672 3.49597 2.66406 3.078 3.00781L1.97254 2.64844C1.62097 2.53125 1.23035 2.62891 1.00769 2.92578C0.870973 3.10938 0.742066 3.30078 0.620973 3.49609L0.503785 3.70312C0.39441 3.89844 0.296754 4.10156 0.20691 4.3125C0.0623789 4.65234 0.171754 5.03906 0.449098 5.28906L1.31629 6.0625C1.27332 6.32422 1.24988 6.59766 1.24988 6.875C1.24988 7.15234 1.27332 7.42578 1.31629 7.69141L0.449098 8.46484C0.171754 8.71094 0.0623789 9.09766 0.20691 9.44141C0.296754 9.64844 0.39441 9.85156 0.503785 10.0508L0.620973 10.2539C0.73816 10.4531 0.867066 10.6406 1.00769 10.8242C1.23035 11.1211 1.62097 11.2188 1.97254 11.1016L3.0741 10.7383C3.49207 11.082 3.97254 11.3633 4.48816 11.5547L4.72644 12.6914C4.80066 13.0547 5.08191 13.3438 5.4491 13.3867C5.71082 13.418 5.97644 13.4336 6.24597 13.4336C6.5155 13.4336 6.78113 13.418 7.04285 13.3867C7.41004 13.3438 7.69129 13.0508 7.7655 12.6914L8.00378 11.5547C8.52332 11.3594 8.99988 11.082 9.41785 10.7383L10.5194 11.1016C10.871 11.2188 11.2616 11.1211 11.4843 10.8242C11.621 10.6406 11.7499 10.4531 11.8671 10.2539L11.9882 10.043C12.0975 9.84766 12.1952 9.64453 12.285 9.4375C12.4296 9.09766 12.3202 8.71094 12.0428 8.46094L11.1757 7.6875C11.2186 7.42188 11.2421 7.14844 11.2421 6.87109C11.2421 6.59375 11.2186 6.32031 11.1757 6.05469L12.0428 5.28125L12.0507 5.28516ZM4.37488 6.875C4.37488 6.37772 4.57242 5.90081 4.92405 5.54917C5.27568 5.19754 5.7526 5 6.24988 5C6.74716 5 7.22407 5.19754 7.5757 5.54917C7.92733 5.90081 8.12488 6.37772 8.12488 6.875C8.12488 7.37228 7.92733 7.84919 7.5757 8.20083C7.22407 8.55246 6.74716 8.75 6.24988 8.75C5.7526 8.75 5.27568 8.55246 4.92405 8.20083C4.57242 7.84919 4.37488 7.37228 4.37488 6.875ZM19.7147 19.5508C19.9608 19.8281 20.3475 19.9375 20.6913 19.793C20.8983 19.7031 21.1014 19.6055 21.2968 19.4961L21.5077 19.375C21.703 19.2578 21.8944 19.1289 22.078 18.9922C22.3749 18.7695 22.4725 18.3789 22.3553 18.0273L21.9921 16.9258C22.3358 16.5078 22.6171 16.0273 22.8085 15.5117L23.9452 15.2734C24.3085 15.1992 24.5975 14.918 24.6405 14.5508C24.6718 14.2891 24.6874 14.0234 24.6874 13.7539C24.6874 13.4844 24.6718 13.2188 24.6405 12.957C24.5975 12.5898 24.3046 12.3086 23.9452 12.2344L22.8085 11.9922C22.6132 11.4727 22.3358 10.9961 21.9921 10.5781L22.3553 9.47656C22.4725 9.125 22.3749 8.73438 22.078 8.51172C21.8944 8.375 21.703 8.24609 21.5077 8.125L21.3007 8.00781C21.1053 7.89844 20.9022 7.80078 20.6913 7.71094C20.3514 7.56641 19.9647 7.67578 19.7147 7.95312L18.9413 8.82031C18.6757 8.77734 18.4022 8.75391 18.1249 8.75391C17.8475 8.75391 17.5741 8.77734 17.3085 8.82031L16.535 7.95312C16.2889 7.67578 15.9022 7.56641 15.5585 7.71094C15.3514 7.80078 15.1483 7.89844 14.9491 8.00781L14.746 8.125C14.5468 8.24219 14.3593 8.37109 14.1757 8.51172C13.8788 8.73438 13.7811 9.125 13.8983 9.47656L14.2616 10.5781C13.9178 10.9961 13.6366 11.4766 13.4452 11.9922L12.3085 12.2266C11.9452 12.3008 11.6561 12.582 11.6132 12.9492C11.5819 13.2109 11.5663 13.4766 11.5663 13.7461C11.5663 14.0156 11.5819 14.2812 11.6132 14.543C11.6561 14.9102 11.9491 15.1914 12.3085 15.2656L13.4452 15.5039C13.6405 16.0234 13.9178 16.5 14.2616 16.918L13.8983 18.0195C13.7811 18.3711 13.8788 18.7617 14.1757 18.9844C14.3593 19.1211 14.5468 19.25 14.746 19.3672L14.9569 19.4883C15.1522 19.5977 15.3553 19.6953 15.5624 19.7852C15.9022 19.9297 16.2889 19.8203 16.5389 19.543L17.3124 18.6758C17.578 18.7188 17.8514 18.7422 18.1288 18.7422C18.4061 18.7422 18.6796 18.7188 18.9452 18.6758L19.7186 19.543L19.7147 19.5508ZM18.1249 11.875C18.3711 11.875 18.6149 11.9235 18.8424 12.0177C19.0699 12.112 19.2766 12.2501 19.4507 12.4242C19.6248 12.5983 19.7629 12.805 19.8572 13.0325C19.9514 13.26 19.9999 13.5038 19.9999 13.75C19.9999 13.9962 19.9514 14.24 19.8572 14.4675C19.7629 14.695 19.6248 14.9017 19.4507 15.0758C19.2766 15.2499 19.0699 15.388 18.8424 15.4823C18.6149 15.5765 18.3711 15.625 18.1249 15.625C17.8787 15.625 17.6348 15.5765 17.4073 15.4823C17.1799 15.388 16.9732 15.2499 16.7991 15.0758C16.6249 14.9017 16.4868 14.695 16.3926 14.4675C16.2984 14.24 16.2499 13.9962 16.2499 13.75C16.2499 13.5038 16.2984 13.26 16.3926 13.0325C16.4868 12.805 16.6249 12.5983 16.7991 12.4242C16.9732 12.2501 17.1799 12.112 17.4073 12.0177C17.6348 11.9235 17.8787 11.875 18.1249 11.875Z" fill="#EA580C"/>
</g>
</g>
<defs>
<clipPath id="clip0_70_1909">
<path d="M0 0H25V20H0V0Z" fill="white"/>
</clipPath>
</defs>
</svg>
