<svg width="23" height="20" viewBox="0 0 23 20" fill="none" xmlns="http://www.w3.org/2000/svg">
<g id="Frame">
<g clip-path="url(#clip0_1_399)">
<path id="Vector" d="M0.5 0.9375C0.5 0.417969 0.917969 0 1.4375 0H3.21484C4.07422 0 4.83594 0.5 5.19141 1.25H21.2461C22.2734 1.25 23.0234 2.22656 22.7539 3.21875L21.1523 9.16797C20.8203 10.3945 19.707 11.25 18.4375 11.25H7.16797L7.37891 12.3633C7.46484 12.8047 7.85156 13.125 8.30078 13.125H19.5625C20.082 13.125 20.5 13.543 20.5 14.0625C20.5 14.582 20.082 15 19.5625 15H8.30078C6.94922 15 5.78906 14.0391 5.53906 12.7148L3.52344 2.12891C3.49609 1.98047 3.36719 1.875 3.21484 1.875H1.4375C0.917969 1.875 0.5 1.45703 0.5 0.9375ZM5.5 18.125C5.5 17.8788 5.5485 17.635 5.64273 17.4075C5.73695 17.18 5.87506 16.9733 6.04917 16.7992C6.22328 16.6251 6.42998 16.487 6.65747 16.3927C6.88495 16.2985 7.12877 16.25 7.375 16.25C7.62123 16.25 7.86505 16.2985 8.09253 16.3927C8.32002 16.487 8.52672 16.6251 8.70083 16.7992C8.87494 16.9733 9.01305 17.18 9.10727 17.4075C9.2015 17.635 9.25 17.8788 9.25 18.125C9.25 18.3712 9.2015 18.615 9.10727 18.8425C9.01305 19.07 8.87494 19.2767 8.70083 19.4508C8.52672 19.6249 8.32002 19.763 8.09253 19.8573C7.86505 19.9515 7.62123 20 7.375 20C7.12877 20 6.88495 19.9515 6.65747 19.8573C6.42998 19.763 6.22328 19.6249 6.04917 19.4508C5.87506 19.2767 5.73695 19.07 5.64273 18.8425C5.5485 18.615 5.5 18.3712 5.5 18.125ZM18.625 16.25C19.1223 16.25 19.5992 16.4475 19.9508 16.7992C20.3025 17.1508 20.5 17.6277 20.5 18.125C20.5 18.6223 20.3025 19.0992 19.9508 19.4508C19.5992 19.8025 19.1223 20 18.625 20C18.1277 20 17.6508 19.8025 17.2992 19.4508C16.9475 19.0992 16.75 18.6223 16.75 18.125C16.75 17.6277 16.9475 17.1508 17.2992 16.7992C17.6508 16.4475 18.1277 16.25 18.625 16.25Z" fill="#89CFF0"/>
</g>
</g>
<defs>
<clipPath id="clip0_1_399">
<path d="M0.5 0H23V20H0.5V0Z" fill="white"/>
</clipPath>
</defs>
</svg>
