<svg width="18" height="16" viewBox="0 0 18 16" fill="none" xmlns="http://www.w3.org/2000/svg">
<g id="Frame">
<g clip-path="url(#clip0_464_43)">
<path id="Vector" d="M2 0C0.896875 0 0 0.896875 0 2V13C0 14.1031 0.896875 15 2 15H2.5L3 16H5L5.5 15H12.5L13 16H15L15.5 15H16C17.1031 15 18 14.1031 18 13V2C18 0.896875 17.1031 0 16 0H2ZM7 10C7.66304 10 8.29893 9.73661 8.76777 9.26777C9.23661 8.79893 9.5 8.16304 9.5 7.5C9.5 6.83696 9.23661 6.20107 8.76777 5.73223C8.29893 5.26339 7.66304 5 7 5C6.33696 5 5.70107 5.26339 5.23223 5.73223C4.76339 6.20107 4.5 6.83696 4.5 7.5C4.5 8.16304 4.76339 8.79893 5.23223 9.26777C5.70107 9.73661 6.33696 10 7 10ZM7 2.5C8.32608 2.5 9.59785 3.02678 10.5355 3.96447C11.4732 4.90215 12 6.17392 12 7.5C12 8.82608 11.4732 10.0979 10.5355 11.0355C9.59785 11.9732 8.32608 12.5 7 12.5C5.67392 12.5 4.40215 11.9732 3.46447 11.0355C2.52678 10.0979 2 8.82608 2 7.5C2 6.17392 2.52678 4.90215 3.46447 3.96447C4.40215 3.02678 5.67392 2.5 7 2.5ZM15 6.91563V10.5C15 10.775 14.775 11 14.5 11C14.225 11 14 10.775 14 10.5V6.91563C13.4187 6.70937 13 6.15312 13 5.5C13 4.67188 13.6719 4 14.5 4C15.3281 4 16 4.67188 16 5.5C16 6.15312 15.5813 6.70937 15 6.91563Z" fill="#FFC125"/>
</g>
</g>
<defs>
<clipPath id="clip0_464_43">
<path d="M0 0H18V16H0V0Z" fill="white"/>
</clipPath>
</defs>
</svg>
