<svg width="16" height="16" viewBox="0 0 16 16" fill="none" xmlns="http://www.w3.org/2000/svg">
<g id="Frame">
<path d="M0 0H16V16H0V0Z" stroke="#E5E7EB"/>
<path id="Vector" d="M2 1C0.896875 1 0 1.89688 0 3V5C0 6.10313 0.896875 7 2 7H14C15.1031 7 16 6.10313 16 5V3C16 1.89688 15.1031 1 14 1H2ZM10.75 3.25C10.9489 3.25 11.1397 3.32902 11.2803 3.46967C11.421 3.61032 11.5 3.80109 11.5 4C11.5 4.19891 11.421 4.38968 11.2803 4.53033C11.1397 4.67098 10.9489 4.75 10.75 4.75C10.5511 4.75 10.3603 4.67098 10.2197 4.53033C10.079 4.38968 10 4.19891 10 4C10 3.80109 10.079 3.61032 10.2197 3.46967C10.3603 3.32902 10.5511 3.25 10.75 3.25ZM12.25 4C12.25 3.80109 12.329 3.61032 12.4697 3.46967C12.6103 3.32902 12.8011 3.25 13 3.25C13.1989 3.25 13.3897 3.32902 13.5303 3.46967C13.671 3.61032 13.75 3.80109 13.75 4C13.75 4.19891 13.671 4.38968 13.5303 4.53033C13.3897 4.67098 13.1989 4.75 13 4.75C12.8011 4.75 12.6103 4.67098 12.4697 4.53033C12.329 4.38968 12.25 4.19891 12.25 4ZM2 9C0.896875 9 0 9.89688 0 11V13C0 14.1031 0.896875 15 2 15H14C15.1031 15 16 14.1031 16 13V11C16 9.89688 15.1031 9 14 9H2ZM10.75 11.25C10.9489 11.25 11.1397 11.329 11.2803 11.4697C11.421 11.6103 11.5 11.8011 11.5 12C11.5 12.1989 11.421 12.3897 11.2803 12.5303C11.1397 12.671 10.9489 12.75 10.75 12.75C10.5511 12.75 10.3603 12.671 10.2197 12.5303C10.079 12.3897 10 12.1989 10 12C10 11.8011 10.079 11.6103 10.2197 11.4697C10.3603 11.329 10.5511 11.25 10.75 11.25ZM12.5 12C12.5 11.8011 12.579 11.6103 12.7197 11.4697C12.8603 11.329 13.0511 11.25 13.25 11.25C13.4489 11.25 13.6397 11.329 13.7803 11.4697C13.921 11.6103 14 11.8011 14 12C14 12.1989 13.921 12.3897 13.7803 12.5303C13.6397 12.671 13.4489 12.75 13.25 12.75C13.0511 12.75 12.8603 12.671 12.7197 12.5303C12.579 12.3897 12.5 12.1989 12.5 12Z" fill="black"/>
</g>
</svg>
