<svg width="18" height="16" viewBox="0 0 18 16" fill="none" xmlns="http://www.w3.org/2000/svg">
<g id="Frame">
<g clip-path="url(#clip0_1_412)">
<path id="Vector" d="M12 5C11.4469 5 11 4.55313 11 4C11 3.44687 11.4469 3 12 3H17C17.5531 3 18 3.44687 18 4V9C18 9.55312 17.5531 10 17 10C16.4469 10 16 9.55312 16 9V6.41563L10.7063 11.7063C10.3156 12.0969 9.68125 12.0969 9.29063 11.7063L6 8.41562L1.70625 12.7063C1.31563 13.0969 0.681252 13.0969 0.290627 12.7063C-0.0999985 12.3156 -0.0999985 11.6812 0.290627 11.2906L5.29063 6.29063C5.68125 5.9 6.31563 5.9 6.70625 6.29063L10 9.58438L14.5844 5H12Z" fill="#22C55E"/>
</g>
</g>
<defs>
<clipPath id="clip0_1_412">
<path d="M0 0H18V16H0V0Z" fill="white"/>
</clipPath>
</defs>
</svg>
