<svg width="23" height="20" viewBox="0 0 23 20" fill="none" xmlns="http://www.w3.org/2000/svg">
<g id="Frame">
<path d="M0 0H22.5V20H0V0Z" stroke="#E5E7EB"/>
<path id="Vector" d="M21.3908 4.05469L19.1525 0.511719C18.9533 0.195312 18.5978 0 18.2189 0H4.28141C3.9025 0 3.54703 0.195312 3.34781 0.511719L1.10563 4.05469C-0.0506235 5.88281 0.972814 8.42578 3.13297 8.71875C3.28922 8.73828 3.44938 8.75 3.60563 8.75C4.62516 8.75 5.53141 8.30469 6.1525 7.61719C6.7736 8.30469 7.67984 8.75 8.69938 8.75C9.71891 8.75 10.6252 8.30469 11.2463 7.61719C11.8673 8.30469 12.7736 8.75 13.7931 8.75C14.8166 8.75 15.7189 8.30469 16.34 7.61719C16.965 8.30469 17.8673 8.75 18.8869 8.75C19.047 8.75 19.2033 8.73828 19.3595 8.71875C21.5275 8.42969 22.5548 5.88672 21.3947 4.05469H21.3908ZM19.5197 9.95703H19.5158C19.3088 9.98438 19.0978 10 18.883 10C18.3986 10 17.9338 9.92578 17.5002 9.79297V15H5.00016V9.78906C4.56266 9.92578 4.09391 10 3.60953 10C3.39469 10 3.17985 9.98438 2.97281 9.95703H2.96891C2.80875 9.93359 2.6525 9.90625 2.50016 9.86719V15V17.5C2.50016 18.8789 3.62125 20 5.00016 20H17.5002C18.8791 20 20.0002 18.8789 20.0002 17.5V15V9.86719C19.8439 9.90625 19.6877 9.9375 19.5197 9.95703Z" fill="#059669"/>
</g>
</svg>
