<svg width="18" height="16" viewBox="0 0 18 16" fill="none" xmlns="http://www.w3.org/2000/svg">
<g id="Frame">
<g clip-path="url(#clip0_177_7034)">
<path id="Vector" d="M17.1124 3.24375L15.3218 0.409375C15.1624 0.15625 14.8781 0 14.5749 0H3.42493C3.12181 0 2.83743 0.15625 2.67806 0.409375L0.884306 3.24375C-0.0406941 4.70625 0.778056 6.74062 2.50618 6.975C2.63118 6.99062 2.75931 7 2.88431 7C3.69993 7 4.42493 6.64375 4.92181 6.09375C5.41868 6.64375 6.14368 7 6.95931 7C7.77493 7 8.49993 6.64375 8.99681 6.09375C9.49368 6.64375 10.2187 7 11.0343 7C11.8531 7 12.5749 6.64375 13.0718 6.09375C13.5718 6.64375 14.2937 7 15.1093 7C15.2374 7 15.3624 6.99062 15.4874 6.975C17.2218 6.74375 18.0437 4.70938 17.1156 3.24375H17.1124ZM15.6156 7.96562H15.6124C15.4468 7.9875 15.2781 8 15.1062 8C14.7187 8 14.3468 7.94062 13.9999 7.83437V12H3.99993V7.83125C3.64993 7.94063 3.27493 8 2.88743 8C2.71556 8 2.54368 7.9875 2.37806 7.96562H2.37493C2.24681 7.94687 2.12181 7.925 1.99993 7.89375V12V14C1.99993 15.1031 2.89681 16 3.99993 16H13.9999C15.1031 16 15.9999 15.1031 15.9999 14V12V7.89375C15.8749 7.925 15.7499 7.95 15.6156 7.96562Z" fill="#059669"/>
</g>
</g>
<defs>
<clipPath id="clip0_177_7034">
<path d="M0 0H18V16H0V0Z" fill="white"/>
</clipPath>
</defs>
</svg>
