<svg width="24" height="24" viewBox="0 0 24 24" fill="none" xmlns="http://www.w3.org/2000/svg">
<g id="carbon:cloud-data-ops" clip-path="url(#clip0_1_1384)">
<path id="Vector" d="M21 13.5H22.5V21H21V13.5ZM18 10.5H19.5V21H18V10.5ZM15 16.5H16.5V21H15V16.5ZM16.6313 7.49999L17.82 6.55049C16.7148 5.16862 15.1544 4.22445 13.4175 3.88649C12.4496 3.69956 11.4544 3.70521 10.4888 3.9031C9.52307 4.10099 8.60585 4.48725 7.78953 5.0398C6.9732 5.59235 6.27377 6.30036 5.73122 7.12336C5.18866 7.94636 4.81361 8.86822 4.62751 9.83624C3.21323 10.0916 1.9502 10.8783 1.09733 12.0351C0.244463 13.1918 -0.133648 14.6309 0.040506 16.0575C0.239773 17.4439 0.937102 18.7102 2.00214 19.6198C3.06718 20.5294 4.42704 21.0201 5.82751 21H12V19.5H5.77126C4.78876 19.5158 3.83152 19.1884 3.06446 18.5742C2.2974 17.9601 1.76855 17.0976 1.56901 16.1355C1.46898 15.6003 1.47576 15.0507 1.58897 14.5181C1.70217 13.9856 1.91956 13.4807 2.22863 13.0325C2.5377 12.5843 2.93235 12.2016 3.38987 11.9065C3.84738 11.6114 4.35874 11.4097 4.89451 11.313L5.90626 11.1292L6.06676 10.2967C6.29249 9.04611 6.89967 7.89595 7.80498 7.00407C8.71029 6.11219 9.86939 5.52227 11.1233 5.31524C11.8761 5.20409 12.6433 5.23718 13.3838 5.41274C14.6712 5.72099 15.8161 6.45682 16.6313 7.49999Z" fill="white"/>
</g>
<defs>
<clipPath id="clip0_1_1384">
<rect width="24" height="24" fill="white"/>
</clipPath>
</defs>
</svg>
