<svg width="9" height="12" viewBox="0 0 9 12" fill="none" xmlns="http://www.w3.org/2000/svg">
<g id="Frame">
<g clip-path="url(#clip0_1_636)">
<path id="Vector" d="M5.02968 0.970337C4.73671 0.677368 4.26093 0.677368 3.96796 0.970337L0.217957 4.72034C-0.0750122 5.01331 -0.0750122 5.48909 0.217957 5.78206C0.510925 6.07502 0.986706 6.07502 1.27968 5.78206L3.74999 3.3094V10.5C3.74999 10.9149 4.08514 11.25 4.49999 11.25C4.91483 11.25 5.24999 10.9149 5.24999 10.5V3.3094L7.7203 5.77971C8.01327 6.07268 8.48905 6.07268 8.78202 5.77971C9.07499 5.48674 9.07499 5.01096 8.78202 4.71799L5.03202 0.967993L5.02968 0.970337Z" fill="#16A34A"/>
</g>
</g>
<defs>
<clipPath id="clip0_1_636">
<path d="M0 0H9V12H0V0Z" fill="white"/>
</clipPath>
</defs>
</svg>
