<svg width="20" height="20" viewBox="0 0 20 20" fill="none" xmlns="http://www.w3.org/2000/svg">
<g id="Frame">
<g clip-path="url(#clip0_70_1891)">
<path id="Vector" d="M1.25 3.74998H13.75V1.24998C13.75 0.746071 14.0547 0.28904 14.5234 0.0937273C14.9922 -0.101585 15.5273 0.00778983 15.8867 0.363259L19.6367 4.11326C19.8711 4.34763 20.0039 4.66404 20.0039 4.99607C20.0039 5.3281 19.8711 5.64451 19.6367 5.87888L15.8867 9.62888C15.5273 9.98826 14.9922 10.0937 14.5234 9.89841C14.0547 9.7031 13.75 9.24998 13.75 8.74216V6.24998H1.25C0.558594 6.24998 0 5.69138 0 4.99998C0 4.30857 0.558594 3.74998 1.25 3.74998ZM18.75 13.75C19.4414 13.75 20 14.3086 20 15C20 15.6914 19.4414 16.25 18.75 16.25H6.25V18.75C6.25 19.2539 5.94531 19.7109 5.47656 19.9062C5.00781 20.1015 4.47266 19.9922 4.11328 19.6367L0.363281 15.8867C0.128906 15.6523 -0.00390625 15.3359 -0.00390625 15.0039C-0.00390625 14.6719 0.128906 14.3554 0.363281 14.1211L4.11328 10.3711C4.47266 10.0117 5.00781 9.90623 5.47656 10.1015C5.94531 10.2969 6.25 10.75 6.25 11.2578V13.7578H18.75V13.75Z" fill="#059669"/>
</g>
</g>
<defs>
<clipPath id="clip0_70_1891">
<path d="M0 0H20V20H0V0Z" fill="white"/>
</clipPath>
</defs>
</svg>
