<svg width="21" height="20" viewBox="0 0 21 20" fill="none" xmlns="http://www.w3.org/2000/svg">
<g id="Frame">
<g clip-path="url(#clip0_1_312)">
<path id="Vector" d="M18.1941 5.92638C18.2068 6.10403 18.2068 6.28173 18.2068 6.45938C18.2068 11.8781 14.0825 18.1218 6.54441 18.1218C4.22207 18.1218 2.06473 17.4492 0.25 16.2817C0.579961 16.3198 0.897187 16.3325 1.23984 16.3325C3.15605 16.3325 4.92004 15.6853 6.32867 14.5812C4.52664 14.5431 3.01648 13.3629 2.49617 11.7386C2.75 11.7766 3.00379 11.802 3.27031 11.802C3.63832 11.802 4.00637 11.7512 4.34898 11.6624C2.47082 11.2817 1.06215 9.63196 1.06215 7.63958V7.58884C1.60781 7.89341 2.24238 8.08376 2.91492 8.10911C1.81086 7.37306 1.08754 6.11673 1.08754 4.6954C1.08754 3.93399 1.29055 3.23603 1.6459 2.62688C3.66367 5.11419 6.69668 6.73853 10.0977 6.91622C10.0342 6.61165 9.99613 6.29442 9.99613 5.97716C9.99613 3.71825 11.8236 1.87817 14.0951 1.87817C15.2753 1.87817 16.3413 2.3731 17.09 3.17259C18.0164 2.99493 18.9047 2.65228 19.6916 2.18274C19.387 3.13454 18.7398 3.93403 17.8895 4.44161C18.7144 4.35282 19.5139 4.12435 20.2499 3.80712C19.6916 4.61927 18.9936 5.34259 18.1941 5.92638Z" fill="#4B5563"/>
</g>
</g>
<defs>
<clipPath id="clip0_1_312">
<path d="M0.25 0H20.25V20H0.25V0Z" fill="white"/>
</clipPath>
</defs>
</svg>
