<svg width="24" height="24" viewBox="0 0 24 24" fill="none" xmlns="http://www.w3.org/2000/svg">
<g id="Frame">
<g clip-path="url(#clip0_370_3292)">
<path id="Vector" d="M1.49999 4.50017H16.5V1.50017C16.5 0.895481 16.8656 0.347043 17.4281 0.112668C17.9906 -0.121707 18.6328 0.00954311 19.0641 0.436106L23.5641 4.93611C23.8453 5.21736 24.0047 5.59704 24.0047 5.99548C24.0047 6.39392 23.8453 6.77361 23.5641 7.05486L19.0641 11.5549C18.6328 11.9861 17.9906 12.1127 17.4281 11.8783C16.8656 11.6439 16.5 11.1002 16.5 10.4908V7.50017H1.49999C0.6703 7.50017 -1.22068e-05 6.82986 -1.22068e-05 6.00017C-1.22068e-05 5.17048 0.6703 4.50017 1.49999 4.50017ZM22.5 16.5002C23.3297 16.5002 24 17.1705 24 18.0002C24 18.8299 23.3297 19.5002 22.5 19.5002H7.49999V22.5002C7.49999 23.1049 7.13436 23.6533 6.57186 23.8877C6.00936 24.122 5.36718 23.9908 4.93593 23.5642L0.435925 19.0642C0.154675 18.783 -0.00469971 18.4033 -0.00469971 18.0049C-0.00469971 17.6064 0.154675 17.2267 0.435925 16.9455L4.93593 12.4455C5.36718 12.0142 6.00936 11.8877 6.57186 12.122C7.13436 12.3564 7.49999 12.9002 7.49999 13.5095V16.5095H22.5V16.5002Z" fill="#7C3AED"/>
</g>
</g>
<defs>
<clipPath id="clip0_370_3292">
<path d="M0 0H24V24H0V0Z" fill="white"/>
</clipPath>
</defs>
</svg>
