<svg width="20" height="20" viewBox="0 0 20 20" fill="none" xmlns="http://www.w3.org/2000/svg">
<g id="Frame">
<g clip-path="url(#clip0_62_2651)">
<path id="Vector" d="M6.94922 19.3008C6.21875 20.0312 5.03125 20.0312 4.29688 19.3008L0.699219 15.6992C-0.03125 14.9687 -0.03125 13.7812 0.699219 13.0469L2.67969 11.0664L4.55469 12.9414C4.79688 13.1836 5.19531 13.1836 5.4375 12.9414C5.67969 12.6992 5.67969 12.3008 5.4375 12.0586L3.5625 10.1836L5.17969 8.56641L7.05469 10.4414C7.29688 10.6836 7.69531 10.6836 7.9375 10.4414C8.17969 10.1992 8.17969 9.80078 7.9375 9.55859L6.0625 7.68359L7.67969 6.06641L9.55469 7.94141C9.79688 8.18359 10.1953 8.18359 10.4375 7.94141C10.6797 7.69922 10.6797 7.30078 10.4375 7.05859L8.5625 5.18359L10.1797 3.56641L12.0547 5.44141C12.2969 5.68359 12.6953 5.68359 12.9375 5.44141C13.1797 5.19922 13.1797 4.80078 12.9375 4.55859L11.0625 2.68359L13.043 0.703125C13.7734 -0.0273438 14.9609 -0.0273438 15.6953 0.703125L19.293 4.30078C20.0234 5.03125 20.0234 6.21875 19.293 6.95312L6.94922 19.3008Z" fill="#7C3AED"/>
</g>
</g>
<defs>
<clipPath id="clip0_62_2651">
<path d="M0 0H20V20H0V0Z" fill="white"/>
</clipPath>
</defs>
</svg>
