<svg width="34" height="35" viewBox="0 0 34 35" fill="none" xmlns="http://www.w3.org/2000/svg">
<g id="up-arrow (2) 1" clip-path="url(#clip0_412_69)">
<path id="Vector" d="M25.9293 22.0009C25.9293 21.9971 25.9293 21.9934 25.9293 21.9896L25.937 10.2718C25.9368 10.179 25.9263 10.0865 25.906 9.9959L25.8283 9.73534L25.7507 9.58206L25.6652 9.49774C25.5584 9.34482 25.4242 9.21237 25.2692 9.10689L25.1915 9.03027L25.0984 8.93831L24.8964 8.87698C24.7829 8.84383 24.6654 8.82576 24.547 8.82331L12.6112 8.84634C11.8167 8.84322 11.1699 9.47633 11.1668 10.2604C11.1667 10.2642 11.1668 10.268 11.1668 10.2718C11.1852 11.0471 11.8177 11.6713 12.6034 11.6896L19.6935 11.6972C19.9967 11.7002 20.2401 11.9452 20.2371 12.2445C20.2357 12.3837 20.1801 12.517 20.0817 12.6169L8.51867 24.0281C7.95678 24.5826 7.95671 25.4815 8.51853 26.036C9.08035 26.5905 9.99123 26.5906 10.5532 26.0362C10.5532 26.0361 10.5533 26.0361 10.5533 26.036L22.1163 14.6248C22.3338 14.4162 22.6814 14.421 22.8928 14.6355C22.9912 14.7354 23.0468 14.8687 23.0482 15.008L23.0405 21.9896C23.055 22.7708 23.6933 23.4007 24.4849 23.415C25.2794 23.4182 25.9261 22.7851 25.9293 22.0009Z" fill="white"/>
</g>
<defs>
<clipPath id="clip0_412_69">
<rect width="23.843" height="23.843" fill="white" transform="matrix(0.711764 0.702419 -0.711764 0.702419 17 0.910156)"/>
</clipPath>
</defs>
</svg>
