<svg width="11" height="14" viewBox="0 0 11 14" fill="none" xmlns="http://www.w3.org/2000/svg">
<g id="Frame">
<g clip-path="url(#clip0_370_3837)">
<path id="Vector" d="M5.86794 1.13184C5.52615 0.790039 4.97107 0.790039 4.62927 1.13184L0.254272 5.50684C-0.0875244 5.84863 -0.0875244 6.40371 0.254272 6.74551C0.596069 7.0873 1.15115 7.0873 1.49294 6.74551L4.37498 3.86074V12.2498C4.37498 12.7338 4.76599 13.1248 5.24998 13.1248C5.73396 13.1248 6.12498 12.7338 6.12498 12.2498V3.86074L9.00701 6.74277C9.3488 7.08457 9.90388 7.08457 10.2457 6.74277C10.5875 6.40098 10.5875 5.8459 10.2457 5.5041L5.87068 1.1291L5.86794 1.13184Z" fill="black"/>
</g>
</g>
<defs>
<clipPath id="clip0_370_3837">
<path d="M0 0H10.5V14H0V0Z" fill="white"/>
</clipPath>
</defs>
</svg>
