<svg width="12" height="16" viewBox="0 0 12 16" fill="none" xmlns="http://www.w3.org/2000/svg">
<g id="Frame">
<path d="M0 0H12V16H0V0Z" stroke="#E5E7EB"/>
<path id="Vector" d="M10.7062 4.70664C11.0969 4.31602 11.0969 3.68164 10.7062 3.29102C10.3156 2.90039 9.68124 2.90039 9.29062 3.29102L5.99999 6.58477L2.70624 3.29414C2.31562 2.90352 1.68124 2.90352 1.29062 3.29414C0.899994 3.68477 0.899994 4.31914 1.29062 4.70977L4.58437 8.00039L1.29374 11.2941C0.903119 11.6848 0.903119 12.3191 1.29374 12.7098C1.68437 13.1004 2.31874 13.1004 2.70937 12.7098L5.99999 9.41602L9.29374 12.7066C9.68437 13.0973 10.3187 13.0973 10.7094 12.7066C11.1 12.316 11.1 11.6816 10.7094 11.291L7.41562 8.00039L10.7062 4.70664Z" fill="black"/>
</g>
</svg>
